<svg width="22" height="22" viewBox="0 0 22 22" fill="none" xmlns="http://www.w3.org/2000/svg">
<mask id="mask0_132_20998" style="mask-type:alpha" maskUnits="userSpaceOnUse" x="0" y="0" width="22" height="22">
<rect x="0.561523" y="0.398682" width="20.7507" height="20.7507" fill="#D9D9D9"/>
</mask>
<g mask="url(#mask0_132_20998)">
<path d="M10.9371 19.4201C9.85637 19.4201 8.84406 19.2147 7.90019 18.804C6.95632 18.3934 6.13493 17.8386 5.43604 17.1397C4.73714 16.4408 4.18235 15.6194 3.77165 14.6755C3.36096 13.7316 3.15562 12.7193 3.15562 11.6386C3.15562 10.5578 3.36096 9.54547 3.77165 8.6016C4.18235 7.65773 4.73714 6.83635 5.43604 6.13745C6.13493 5.43856 6.95632 4.88376 7.90019 4.47307C8.84406 4.06238 9.85637 3.85703 10.9371 3.85703C12.0179 3.85703 13.0302 4.06238 13.9741 4.47307C14.918 4.88376 15.7394 5.43856 16.4382 6.13745C17.1371 6.83635 17.6919 7.65773 18.1026 8.6016C18.5133 9.54547 18.7187 10.5578 18.7187 11.6386C18.7187 12.7193 18.5133 13.7316 18.1026 14.6755C17.6919 15.6194 17.1371 16.4408 16.4382 17.1397C15.7394 17.8386 14.918 18.3934 13.9741 18.804C13.0302 19.2147 12.0179 19.4201 10.9371 19.4201ZM13.3581 15.2699L14.5685 14.0595L11.8018 11.2927V7.31549H10.0725V11.9844L13.3581 15.2699ZM5.40361 2.43042L6.61407 3.64088L2.93946 7.31549L1.729 6.10503L5.40361 2.43042ZM16.4707 2.43042L20.1453 6.10503L18.9348 7.31549L15.2602 3.64088L16.4707 2.43042ZM10.9371 17.6909C12.6231 17.6909 14.0534 17.1036 15.2278 15.9292C16.4022 14.7548 16.9894 13.3246 16.9894 11.6386C16.9894 9.95256 16.4022 8.52235 15.2278 7.34791C14.0534 6.17348 12.6231 5.58626 10.9371 5.58626C9.25114 5.58626 7.82093 6.17348 6.6465 7.34791C5.47206 8.52235 4.88484 9.95256 4.88484 11.6386C4.88484 13.3246 5.47206 14.7548 6.6465 15.9292C7.82093 17.1036 9.25114 17.6909 10.9371 17.6909Z" fill="#1C1B1F"/>
</g>
</svg>
