<?xml version="1.0" encoding="UTF-8"?>
<svg width="1440px" height="1496px" viewBox="0 0 1440 1496" version="1.1" xmlns="http://www.w3.org/2000/svg" xmlns:xlink="http://www.w3.org/1999/xlink">
    <!-- Generator: Sketch 57.1 (83088) - https://sketch.com -->
    <title>Shape</title>
    <desc>Created with Sketch.</desc>
    <g id="Page-1" stroke="none" stroke-width="1" fill="none" fill-rule="evenodd" opacity="0.103422619">
        <g id="HOME" transform="translate(0.000000, -3474.000000)" fill="#FFFFFF" fill-rule="nonzero">
            <g id="Group-5" transform="translate(-220.000000, 3474.000000)">
                <g id="noun_Rabbit_828092" transform="translate(0.792208, 0.000000)">
                    <path d="M1876.48122,762.00466 L1819.20418,586.025542 C1818.04129,582.379021 1815.479,579.343539 1812.0889,577.549845 L1410.87365,364.691591 C1405.33517,361.734952 1398.63379,362.602233 1394.02167,366.800659 L1377.26823,382.017492 L1190.43785,9.46134146 C1188.62454,5.89366445 1185.51037,3.23268988 1181.74577,2.01061267 C1177.94176,0.768824541 1173.8618,1.14333207 1170.35344,2.99615881 L1120.62529,29.1328423 C1116.6636,31.2024892 1113.84508,34.9475645 1112.99755,39.3233894 L1089.20767,158.042277 L836.762949,2.18801098 C831.973437,-0.748916509 825.9422,-0.729205586 821.152688,2.24714374 C816.382886,5.22349307 813.722046,10.6439968 814.273924,16.2418989 L835.560643,229.829457 C835.974552,233.929329 838.063804,237.674405 841.355361,240.157981 L1044.46614,393.489249 L1059.66249,557.622102 L1000.21736,607.648424 L489.257255,556.143783 C486.852644,555.828408 484.467743,556.242338 482.260231,557.14904 L303.865697,629.054486 C303.274399,629.291017 302.95904,629.842923 302.407162,630.158298 C301.224567,630.808758 300.23907,631.538062 299.273284,632.503898 C298.425757,633.331756 297.7162,634.179326 297.105192,635.204294 C296.770123,635.736489 296.198536,636.071575 295.942307,636.643191 L176.28335,899.488346 L5.24061739,1050.0798 C2.22499881,1052.74077 0.411685673,1056.50556 0.219986825,1060.50687 C0.0569070165,1064.5279 1.53515142,1068.45038 4.3142509,1071.36759 L192.938237,1269.32439 L201.472634,1428.76604 C201.886543,1436.2759 207.83894,1442.28774 215.348422,1442.74109 L1015.74878,1491.40736 C1016.06414,1491.42707 1016.35979,1491.42707 1016.63573,1491.42707 C1016.79341,1491.42707 1016.87225,1491.42707 1017.02993,1491.42707 C1025.22926,1491.42707 1031.81237,1484.8042 1031.81237,1476.64387 C1031.81237,1471.93296 1029.62457,1467.71483 1026.15562,1465.01443 L839.817987,1245.29677 L935.371705,1194.10751 L1122.71455,1425.57287 C1124.72496,1428.05645 1127.48435,1429.83043 1130.5591,1430.61887 L1387.75391,1495.56636 C1388.95622,1495.86202 1390.17823,1496 1391.38054,1496 C1395.95324,1496 1400.30913,1493.91064 1403.16707,1490.16557 C1406.75428,1485.43495 1407.16819,1479.04861 1404.25112,1473.88434 L1275.60444,1248.62792 L1289.97297,1232.42554 L1552.7457,1306.00642 C1554.04655,1306.38092 1555.40654,1306.53861 1556.70739,1306.53861 C1561.59545,1306.53861 1566.247,1304.13388 1569.0261,1299.91574 C1572.57388,1294.57408 1572.25852,1287.55699 1568.29683,1282.53071 L1415.38723,1090.70401 L1530.78884,960.316253 L1683.54076,948.982473 C1686.89145,948.726231 1690.04504,947.346466 1692.50878,945.059999 L1872.55895,777.398891 C1876.71774,773.476417 1878.25511,767.464585 1876.48122,762.00466 Z M1140.59145,52.0566454 L1170.72792,36.1893527 L1346.4222,386.47216 L1276.09719,275.184291 C1274.89488,273.272331 1273.27867,271.675746 1271.3668,270.493091 L1116.03288,174.619163 L1140.59145,52.0566454 Z M846.657331,43.0684647 L1252.91831,293.870245 L1333.72901,421.695579 L1241.7625,505.44729 L1067.48734,373.837459 L864.337134,220.466769 L846.657331,43.0684647 Z M1096.77628,637.451339 L1076.41593,417.635129 L1219.50999,525.690407 L1096.77628,637.451339 Z M489.927392,585.926987 L968.740609,634.218748 L925.378773,670.743088 C924.866315,671.157017 924.393277,671.630079 923.939949,672.103141 C923.939949,672.103141 923.939949,672.122852 923.920239,672.122852 C923.920239,672.122852 923.920239,672.122852 923.920239,672.142563 C922.087216,674.172788 920.80607,676.715497 920.313322,679.613003 C920.313322,679.613003 920.313322,679.613003 920.313322,679.632714 C920.273902,679.810112 920.254193,680.007221 920.234483,680.164909 L868.10173,1073.39782 L338.279226,647.050559 L489.927392,585.926987 Z M36.2837498,1062.10346 L175.258434,939.73805 L190.454786,1223.91042 L36.2837498,1062.10346 Z M230.249125,1414.02227 L203.345077,911.314899 L313.168781,670.112338 L982.892335,1459.77132 L230.249125,1414.02227 Z M820.206611,1222.21528 L421.080623,751.636715 L868.791577,1111.89325 L916.371337,1170.67122 L820.206611,1222.21528 Z M1142.52302,1403.14184 L894.788969,1097.05092 L943.807553,727.431701 L1361.26377,1458.37185 L1142.52302,1403.14184 Z M1516.53856,1265.18509 L1311.65389,1207.8066 L1395.38165,1113.19417 L1516.53856,1265.18509 Z M1260.0336,1221.5254 L953.839905,685.408014 L1014.1917,634.573545 C1014.27054,634.534123 1014.30996,634.47499 1014.34938,634.435568 L1062.97376,593.495982 L1070.04963,669.737831 C1070.2073,671.43297 1070.73947,672.990133 1071.3899,674.448741 C1071.46874,674.626139 1071.46874,674.803538 1071.54758,674.941514 C1072.43453,676.754919 1073.73538,678.27266 1075.25305,679.55387 C1075.33189,679.632714 1075.37131,679.77069 1075.48956,679.849534 L1426.6416,964.002196 C1429.26302,966.130976 1432.57428,967.29392 1435.92497,967.29392 C1436.31917,967.29392 1436.65424,967.274209 1437.04844,967.254498 L1488.43221,963.45029 L1260.0336,1221.5254 Z M1676.0707,919.86944 L1440.69477,937.353028 L1107.43935,667.727317 L1406.2024,395.696872 L1792.95056,600.867867 L1845.4578,762.201769 L1676.0707,919.86944 Z" id="Shape"></path>
                </g>
            </g>
        </g>
    </g>
</svg>