<?xml version="1.0" encoding="UTF-8"?>
<svg width="15px" height="15px" viewBox="0 0 15 15" version="1.1" xmlns="http://www.w3.org/2000/svg" xmlns:xlink="http://www.w3.org/1999/xlink">
    <!-- Generator: Sketch 57.1 (83088) - https://sketch.com -->
    <title>noun_level 7_362121</title>
    <desc>Created with Sketch.</desc>
    <g id="Page-1" stroke="none" stroke-width="1" fill="none" fill-rule="evenodd">
        <g id="SINGLE-MISSION" transform="translate(-580.000000, -297.000000)">
            <g id="noun_level-7_362121" transform="translate(580.000000, 297.000000)">
                <g id="Group">
                    <path d="M0.701671733,11.806298 L1.94832827,11.806298 C2.27629179,11.806298 2.54209726,12.0749616 2.54209726,12.4064516 L2.54209726,13.6665131 C2.54209726,13.9978495 2.27629179,14.2665131 1.94832827,14.2665131 L0.701671733,14.2665131 C0.373860182,14.2665131 0.108054711,13.9978495 0.108054711,13.6665131 L0.108054711,12.4064516 C0.108054711,12.0749616 0.373860182,11.806298 0.701671733,11.806298 Z" id="Path" fill="#333333" fill-rule="nonzero"></path>
                    <g transform="translate(2.887538, 11.674347)"></g>
                    <g transform="translate(5.775076, 11.674347)"></g>
                    <g transform="translate(2.814590, 11.674347)" fill="#333333" fill-rule="nonzero">
                        <path d="M0.796048632,0.131950845 L2.04270517,0.131950845 C2.37051672,0.131950845 2.63632219,0.400614439 2.63632219,0.732104455 L2.63632219,1.9921659 C2.63632219,2.3235023 2.37051672,2.5921659 2.04270517,2.5921659 L0.796048632,2.5921659 C0.468085106,2.5921659 0.202431611,2.3235023 0.202431611,1.9921659 L0.202431611,0.732104455 C0.202431611,0.400614439 0.468085106,0.131950845 0.796048632,0.131950845 Z" id="Path"></path>
                        <path d="M2.04270517,0.131950845 C2.37051672,0.131950845 2.63632219,0.400614439 2.63632219,0.732104455 L2.63632219,1.9921659 C2.63632219,2.3235023 2.37051672,2.5921659 2.04270517,2.5921659 L0.796048632,2.5921659 C0.468085106,2.5921659 0.202431611,2.3235023 0.202431611,1.9921659 L0.202279635,0.732104455 C0.202431611,0.400614439 0.468085106,0.131950845 0.796048632,0.131950845 L2.04270517,0.131950845 Z M2.04270517,0.372043011 L0.796048632,0.372043011 C0.599240122,0.372043011 0.439817629,0.533179724 0.439817629,0.732104455 L0.439817629,1.9921659 C0.439817629,2.19093702 0.599240122,2.35207373 0.796048632,2.35207373 L2.04270517,2.35207373 C2.2393617,2.35207373 2.39893617,2.19093702 2.39893617,1.9921659 L2.39893617,0.732104455 C2.39893617,0.533179724 2.2393617,0.372043011 2.04270517,0.372043011 Z" id="Shape"></path>
                        <path d="M3.70486322,0.131950845 L4.95167173,0.131950845 C5.27948328,0.131950845 5.54528875,0.400614439 5.54528875,0.732104455 L5.54528875,1.9921659 C5.54528875,2.3235023 5.27948328,2.5921659 4.95167173,2.5921659 L3.70486322,2.5921659 C3.37705167,2.5921659 3.1112462,2.3235023 3.1112462,1.9921659 L3.1112462,0.732104455 C3.1112462,0.400614439 3.37705167,0.131950845 3.70486322,0.131950845 Z" id="Path"></path>
                        <path d="M4.95167173,0.131950845 C5.27948328,0.131950845 5.54528875,0.400614439 5.54528875,0.732104455 L5.54528875,1.9921659 C5.54528875,2.3235023 5.27948328,2.5921659 4.95167173,2.5921659 L3.70486322,2.5921659 C3.37705167,2.5921659 3.1112462,2.3235023 3.1112462,1.9921659 L3.1112462,0.732104455 C3.1112462,0.400614439 3.37705167,0.131950845 3.70486322,0.131950845 L4.95167173,0.131950845 Z M4.95167173,0.372043011 L3.70486322,0.372043011 C3.50820669,0.372043011 3.34878419,0.533179724 3.34878419,0.732104455 L3.34878419,1.9921659 C3.34878419,2.19093702 3.50820669,2.35207373 3.70486322,2.35207373 L4.95167173,2.35207373 C5.14832827,2.35207373 5.30775076,2.19093702 5.30775076,1.9921659 L5.30775076,0.732104455 C5.30775076,0.533179724 5.14832827,0.372043011 4.95167173,0.372043011 Z" id="Shape"></path>
                        <path d="M6.61382979,0.131950845 L7.86048632,0.131950845 C8.18844985,0.131950845 8.45410334,0.400614439 8.45410334,0.732104455 L8.45410334,1.9921659 C8.45410334,2.3235023 8.18844985,2.5921659 7.86048632,2.5921659 L6.61382979,2.5921659 C6.28601824,2.5921659 6.02021277,2.3235023 6.02021277,1.9921659 L6.02021277,0.732104455 C6.02021277,0.400614439 6.28601824,0.131950845 6.61382979,0.131950845 Z" id="Path"></path>
                        <path d="M7.86048632,0.131950845 C8.18844985,0.131950845 8.45410334,0.400614439 8.45410334,0.732104455 L8.45410334,1.9921659 C8.45410334,2.3235023 8.18844985,2.5921659 7.86048632,2.5921659 L6.61382979,2.5921659 C6.28601824,2.5921659 6.02021277,2.3235023 6.02021277,1.9921659 L6.02021277,0.732104455 C6.02021277,0.400614439 6.28601824,0.131950845 6.61382979,0.131950845 L7.86048632,0.131950845 Z M7.86048632,0.372043011 L6.61382979,0.372043011 C6.41717325,0.372043011 6.25759878,0.533179724 6.25759878,0.732104455 L6.25759878,1.9921659 C6.25759878,2.19093702 6.41717325,2.35207373 6.61382979,2.35207373 L7.86048632,2.35207373 C8.05729483,2.35207373 8.21671733,2.19093702 8.21671733,1.9921659 L8.21671733,0.732104455 C8.21671733,0.533179724 8.05729483,0.372043011 7.86048632,0.372043011 Z" id="Shape"></path>
                    </g>
                    <path d="M13.5840426,11.806298 C13.9118541,11.806298 14.1776596,12.0749616 14.1776596,12.4064516 L14.1776596,13.6665131 C14.1776596,13.9978495 13.9118541,14.2665131 13.5840426,14.2665131 L12.337234,14.2665131 C12.0094225,14.2665131 11.743617,13.9978495 11.743617,13.6665131 L11.743617,12.4064516 C11.743617,12.0749616 12.0094225,11.806298 12.337386,11.806298 L13.5840426,11.806298 Z M13.5840426,12.0463902 L12.337234,12.0463902 C12.1405775,12.0463902 11.981155,12.2075269 11.981155,12.4064516 L11.981155,13.6665131 C11.981155,13.8652842 12.1405775,14.0264209 12.337386,14.0264209 L13.5840426,14.0264209 C13.7806991,14.0264209 13.9402736,13.8652842 13.9402736,13.6665131 L13.9402736,12.4064516 C13.9402736,12.2075269 13.7806991,12.0463902 13.5840426,12.0463902 Z" id="Shape" fill="#333333" fill-rule="nonzero"></path>
                    <g transform="translate(2.887538, 8.755760)" fill="#333333" fill-rule="nonzero">
                        <path d="M0.723100304,0.110445469 L1.96975684,0.110445469 C2.29756839,0.110445469 2.56337386,0.379109063 2.56337386,0.710445469 L2.56337386,1.97050691 C2.56337386,2.30184332 2.29756839,2.57050691 1.96975684,2.57050691 L0.723100304,2.57050691 C0.395136778,2.57050691 0.129483283,2.30184332 0.129483283,1.97050691 L0.129483283,0.710445469 C0.129483283,0.379109063 0.395136778,0.110445469 0.723100304,0.110445469 Z" id="Path"></path>
                        <path d="M1.96975684,0.110445469 C2.29756839,0.110445469 2.56337386,0.379109063 2.56337386,0.710445469 L2.56337386,1.97050691 C2.56337386,2.30184332 2.29756839,2.57050691 1.96975684,2.57050691 L0.723100304,2.57050691 C0.395136778,2.57050691 0.129483283,2.30184332 0.129483283,1.97050691 L0.129331307,0.710445469 C0.129483283,0.379109063 0.395136778,0.110445469 0.723100304,0.110445469 L1.96975684,0.110445469 Z M1.96975684,0.350384025 L0.723100304,0.350384025 C0.526291793,0.350384025 0.366869301,0.511674347 0.366869301,0.710445469 L0.366869301,1.97050691 C0.366869301,2.16943164 0.526291793,2.33056836 0.723100304,2.33056836 L1.96975684,2.33056836 C2.16641337,2.33056836 2.32598784,2.16943164 2.32598784,1.97050691 L2.32598784,0.710445469 C2.32598784,0.511674347 2.16641337,0.350384025 1.96975684,0.350384025 Z" id="Shape"></path>
                    </g>
                    <g transform="translate(5.775076, 8.755760)" fill="#333333" fill-rule="nonzero">
                        <path d="M0.7443769,0.110445469 L1.99118541,0.110445469 C2.31899696,0.110445469 2.58480243,0.379109063 2.58480243,0.710445469 L2.58480243,1.97050691 C2.58480243,2.30184332 2.31899696,2.57050691 1.99118541,2.57050691 L0.7443769,2.57050691 C0.41656535,2.57050691 0.150759878,2.30184332 0.150759878,1.97050691 L0.150759878,0.710445469 C0.150759878,0.379109063 0.41656535,0.110445469 0.7443769,0.110445469 Z" id="Path"></path>
                        <path d="M1.99118541,0.110445469 C2.31899696,0.110445469 2.58480243,0.379109063 2.58480243,0.710445469 L2.58480243,1.97050691 C2.58480243,2.30184332 2.31899696,2.57050691 1.99118541,2.57050691 L0.7443769,2.57050691 C0.41656535,2.57050691 0.150759878,2.30184332 0.150759878,1.97050691 L0.150759878,0.710445469 C0.150759878,0.379109063 0.41656535,0.110445469 0.7443769,0.110445469 L1.99118541,0.110445469 Z M1.99118541,0.350384025 L0.7443769,0.350384025 C0.547720365,0.350384025 0.388297872,0.511674347 0.388297872,0.710445469 L0.388297872,1.97050691 C0.388297872,2.16943164 0.547720365,2.33056836 0.7443769,2.33056836 L1.99118541,2.33056836 C2.18784195,2.33056836 2.34726444,2.16943164 2.34726444,1.97050691 L2.34726444,0.710445469 C2.34726444,0.511674347 2.18784195,0.350384025 1.99118541,0.350384025 Z" id="Shape"></path>
                    </g>
                    <g transform="translate(5.775076, 5.837174)" fill="#333333" fill-rule="nonzero">
                        <path d="M0.7443769,0.0887864823 L1.99118541,0.0887864823 C2.31899696,0.0887864823 2.58480243,0.357450077 2.58480243,0.688786482 L2.58480243,1.94900154 C2.58480243,2.28033794 2.31899696,2.54900154 1.99118541,2.54900154 L0.7443769,2.54900154 C0.41656535,2.54900154 0.150759878,2.28033794 0.150759878,1.94900154 L0.150759878,0.688786482 C0.150759878,0.357450077 0.41656535,0.0887864823 0.7443769,0.0887864823 Z" id="Path"></path>
                        <path d="M1.99103343,0.0887864823 C2.31899696,0.0887864823 2.58480243,0.357450077 2.58480243,0.688786482 L2.58480243,1.94900154 C2.58480243,2.28033794 2.31899696,2.54900154 1.99118541,2.54900154 L0.7443769,2.54900154 C0.41656535,2.54900154 0.150759878,2.28033794 0.150759878,1.94900154 L0.150759878,0.688786482 C0.150759878,0.357450077 0.41656535,0.0887864823 0.7443769,0.0887864823 L1.99103343,0.0887864823 Z M1.99103343,0.328878648 L0.7443769,0.328878648 C0.547720365,0.328878648 0.388297872,0.490015361 0.388297872,0.688786482 L0.388297872,1.94900154 C0.388297872,2.14777266 0.547720365,2.30890937 0.7443769,2.30890937 L1.99103343,2.30890937 C2.18784195,2.30890937 2.34726444,2.14777266 2.34726444,1.94900154 L2.34726444,0.688786482 C2.34726444,0.490015361 2.18784195,0.328878648 1.99103343,0.328878648 Z" id="Shape"></path>
                    </g>
                    <path d="M10.675076,8.86620584 C11.0030395,8.86620584 11.268693,9.13486943 11.268693,9.46620584 L11.268693,10.7262673 C11.268693,11.0576037 11.0030395,11.3262673 10.675076,11.3262673 L9.42841945,11.3262673 C9.1006079,11.3262673 8.83480243,11.0576037 8.83480243,10.7262673 L8.83480243,9.46620584 C8.83480243,9.13486943 9.1006079,8.86620584 9.42841945,8.86620584 L10.675076,8.86620584 Z M10.675076,9.10614439 L9.42841945,9.10614439 C9.23176292,9.10614439 9.07218845,9.26743472 9.07218845,9.46620584 L9.07218845,10.7262673 C9.07218845,10.925192 9.23176292,11.0863287 9.42841945,11.0863287 L10.675076,11.0863287 C10.8718845,11.0863287 11.031307,10.925192 11.031307,10.7262673 L11.031307,9.46620584 C11.031307,9.26743472 10.8718845,9.10614439 10.675076,9.10614439 Z" id="Shape" fill="#333333" fill-rule="nonzero"></path>
                    <path d="M10.675076,5.92596006 C11.0030395,5.92596006 11.268693,6.19462366 11.268693,6.52596006 L11.268693,7.78617512 C11.268693,8.11751152 11.0030395,8.38617512 10.675076,8.38617512 L9.42841945,8.38617512 C9.1006079,8.38617512 8.83480243,8.11751152 8.83480243,7.78617512 L8.83480243,6.52596006 C8.83480243,6.19462366 9.1006079,5.92596006 9.42841945,5.92596006 L10.675076,5.92596006 Z M10.675076,6.16605223 L9.42841945,6.16605223 C9.23176292,6.16605223 9.07218845,6.32718894 9.07218845,6.52596006 L9.07218845,7.78617512 C9.07218845,7.98494624 9.23176292,8.14608295 9.42841945,8.14608295 L10.675076,8.14608295 C10.8718845,8.14608295 11.031307,7.98494624 11.031307,7.78617512 L11.031307,6.52596006 C11.031307,6.32718894 10.8718845,6.16605223 10.675076,6.16605223 Z" id="Shape" fill="#333333" fill-rule="nonzero"></path>
                    <path d="M10.675076,2.9858679 C11.0030395,2.9858679 11.268693,3.25437788 11.268693,3.5858679 L11.268693,4.84592934 C11.268693,5.17726575 11.0030395,5.44592934 10.675076,5.44592934 L9.42841945,5.44592934 C9.1006079,5.44592934 8.83480243,5.17726575 8.83480243,4.84592934 L8.83480243,3.5858679 C8.83480243,3.25437788 9.1006079,2.9858679 9.42841945,2.9858679 L10.675076,2.9858679 Z M10.675076,3.22580645 L9.42841945,3.22580645 C9.23176292,3.22580645 9.07218845,3.38694316 9.07218845,3.5858679 L9.07218845,4.84592934 C9.07218845,5.04470046 9.23176292,5.20599078 9.42841945,5.20599078 L10.675076,5.20599078 C10.8718845,5.20599078 11.031307,5.04470046 11.031307,4.84592934 L11.031307,3.5858679 C11.031307,3.38694316 10.8718845,3.22580645 10.675076,3.22580645 Z" id="Shape" fill="#333333" fill-rule="nonzero"></path>
                    <path d="M13.5840426,8.86620584 C13.9118541,8.86620584 14.1776596,9.13486943 14.1776596,9.46620584 L14.1776596,10.7262673 C14.1776596,11.0576037 13.9118541,11.3262673 13.5840426,11.3262673 L12.337234,11.3262673 C12.0094225,11.3262673 11.743617,11.0576037 11.743617,10.7262673 L11.743617,9.46620584 C11.743617,9.13486943 12.0094225,8.86620584 12.337386,8.86620584 L13.5840426,8.86620584 Z M13.5840426,9.10614439 L12.337234,9.10614439 C12.1405775,9.10614439 11.981155,9.26743472 11.981155,9.46620584 L11.981155,10.7262673 C11.981155,10.925192 12.1405775,11.0863287 12.337386,11.0863287 L13.5840426,11.0863287 C13.7806991,11.0863287 13.9402736,10.925192 13.9402736,10.7262673 L13.9402736,9.46620584 C13.9402736,9.26743472 13.7806991,9.10614439 13.5840426,9.10614439 Z" id="Shape" fill="#333333" fill-rule="nonzero"></path>
                    <path d="M13.5840426,5.92596006 C13.9118541,5.92596006 14.1776596,6.19462366 14.1776596,6.52596006 L14.1776596,7.78617512 C14.1776596,8.11751152 13.9118541,8.38617512 13.5840426,8.38617512 L12.337234,8.38617512 C12.0094225,8.38617512 11.743617,8.11751152 11.743617,7.78617512 L11.743617,6.52596006 C11.743617,6.19462366 12.0094225,5.92596006 12.337386,5.92596006 L13.5840426,5.92596006 Z M13.5840426,6.16605223 L12.337234,6.16605223 C12.1405775,6.16605223 11.981155,6.32718894 11.981155,6.52596006 L11.981155,7.78617512 C11.981155,7.98494624 12.1405775,8.14608295 12.337386,8.14608295 L13.5840426,8.14608295 C13.7806991,8.14608295 13.9402736,7.98494624 13.9401217,7.78617512 L13.9401217,6.52596006 C13.9402736,6.32718894 13.7806991,6.16605223 13.5840426,6.16605223 Z" id="Shape" fill="#333333" fill-rule="nonzero"></path>
                    <path d="M13.5840426,2.9858679 C13.9118541,2.9858679 14.1776596,3.25437788 14.1776596,3.5858679 L14.1776596,4.84592934 C14.1776596,5.17726575 13.9118541,5.44592934 13.5840426,5.44592934 L12.337234,5.44592934 C12.0094225,5.44592934 11.743617,5.17726575 11.743617,4.84592934 L11.743617,3.5858679 C11.743617,3.25437788 12.0094225,2.9858679 12.337386,2.9858679 L13.5840426,2.9858679 Z M13.5840426,3.22580645 L12.337234,3.22580645 C12.1405775,3.22580645 11.981155,3.38694316 11.981155,3.5858679 L11.981155,4.84592934 C11.981155,5.04470046 12.1405775,5.20599078 12.337386,5.20599078 L13.5840426,5.20599078 C13.7806991,5.20599078 13.9402736,5.04470046 13.9402736,4.84592934 L13.9402736,3.5858679 C13.9402736,3.38694316 13.7806991,3.22580645 13.5840426,3.22580645 Z" id="Shape" fill="#333333" fill-rule="nonzero"></path>
                    <path d="M13.5840426,0.0456221198 C13.9118541,0.0456221198 14.1776596,0.314285714 14.1776596,0.64562212 L14.1776596,1.90568356 C14.1776596,2.23717358 13.9118541,2.50568356 13.5840426,2.50568356 L12.337234,2.50568356 C12.0094225,2.50568356 11.743617,2.23717358 11.743617,1.90568356 L11.743617,0.64562212 C11.743617,0.314285714 12.0094225,0.0456221198 12.337386,0.0456221198 L13.5840426,0.0456221198 Z M13.5840426,0.285560676 L12.337234,0.285560676 C12.1405775,0.285560676 11.981155,0.446850998 11.981155,0.64562212 L11.981155,1.90568356 C11.981155,2.10460829 12.1405775,2.26574501 12.337386,2.26574501 L13.5840426,2.26574501 C13.7806991,2.26574501 13.9402736,2.10460829 13.9401217,1.90568356 L13.9401217,0.64562212 C13.9402736,0.446850998 13.7806991,0.285560676 13.5840426,0.285560676 Z" id="Shape" fill="#333333" fill-rule="nonzero"></path>
                </g>
            </g>
        </g>
    </g>
</svg>