<?xml version="1.0" encoding="UTF-8"?>
<svg width="15px" height="15px" viewBox="0 0 15 15" version="1.1" xmlns="http://www.w3.org/2000/svg" xmlns:xlink="http://www.w3.org/1999/xlink">
    <!-- Generator: Sketch 57.1 (83088) - https://sketch.com -->
    <title>noun_Category_101469</title>
    <desc>Created with Sketch.</desc>
    <g id="Page-1" stroke="none" stroke-width="1" fill="none" fill-rule="evenodd">
        <g id="SINGLE-MISSION" transform="translate(-769.000000, -299.000000)" fill="#333333" fill-rule="nonzero">
            <g id="noun_Category_101469" transform="translate(769.000000, 299.000000)">
                <path d="M8.48614687,0 C8.21366858,0 7.96093851,0.112863005 7.78155893,0.292171454 C7.78155893,0.298768874 7.7749762,0.298768874 7.7749762,0.298768874 C7.7749762,0.305366294 7.76839346,0.305366294 7.76839346,0.305366294 L5.82084377,2.25867384 L3.3083542,4.77017024 L0.284056847,7.7932023 C-0.0946856155,8.1784445 -0.0946856155,8.79648138 0.284056847,9.17489053 L5.82084377,14.7160164 C6.19982133,15.0946612 6.82471112,15.0946612 7.21003632,14.7160164 L10.2343337,11.69322 L12.7400054,9.17489053 L14.6943729,7.22841603 C14.6943729,7.22841603 14.7009557,7.22181861 14.7077735,7.22181861 L14.7077735,7.21522119 C14.8871531,7.03567712 15,6.78992323 15,6.51754403 L15,0.983251193 C15,0.71110762 14.8937358,0.465118106 14.7143562,0.292171454 C14.5415594,0.112863005 14.2888293,0 14.016351,0 L8.48614687,0 L8.48614687,0 Z M8.48614687,0.37864478 L14.016116,0.37864478 C14.1886777,0.37864478 14.3349085,0.445090224 14.4479905,0.551355809 C14.5544898,0.664218814 14.6207873,0.810540164 14.6207873,0.983015571 L14.6207873,6.51754403 C14.6207873,6.69025506 14.5544898,6.84317383 14.4414078,6.94943942 C14.4414078,6.95603684 14.434825,6.95603684 14.434825,6.95603684 L14.4282423,6.96263426 L12.4806926,8.91570618 L9.96185539,11.4274382 L6.93732294,14.4502346 C6.69799344,14.6896267 6.31925098,14.6896267 6.08015658,14.4502346 L0.549952393,8.9159418 C0.310622891,8.67678533 0.310622891,8.29814055 0.549952393,8.05898408 L3.57424974,5.03595201 L6.08015658,2.52469124 L8.03428901,0.571383691 C8.04087174,0.564786271 8.04768958,0.564786271 8.04768958,0.564786271 C8.04768958,0.564786271 8.04768958,0.558188851 8.05427231,0.558188851 C8.16053649,0.445325846 8.31335003,0.37864478 8.48614687,0.37864478 L8.48614687,0.37864478 Z M12.6337412,1.28908873 C12.3612629,1.28908873 12.0819668,1.39535432 11.8757861,1.60128807 C11.4573121,2.01975299 11.4638949,2.70423531 11.8823688,3.12270023 C12.3010779,3.54116515 12.9790998,3.54116515 13.3978089,3.12270023 C13.816518,2.70423531 13.816518,2.01975299 13.3978089,1.60128807 C13.3912262,1.60128807 13.3912262,1.59469065 13.3844083,1.58785761 C13.3775905,1.58102456 13.364425,1.57442714 13.3580774,1.57442714 C13.3514946,1.56782972 13.3446768,1.56782972 13.3380941,1.56099668 C13.3315113,1.56099668 13.3246935,1.55439926 13.3246935,1.55439926 C13.1255657,1.3887569 12.8862362,1.28908873 12.6337412,1.28908873 L12.6337412,1.28908873 Z M12.6337412,1.66090047 C12.8133559,1.66090047 12.9993182,1.73417896 13.1321484,1.87343164 C13.4114446,2.14581083 13.4114446,2.58453926 13.1321484,2.86351588 C12.8596702,3.13565945 12.4209778,3.13565945 12.1419168,2.86351588 C11.8694385,2.58430364 11.8694385,2.13921341 12.1419168,1.86706984 C12.2813297,1.72734591 12.4541266,1.66090047 12.6337412,1.66090047 L12.6337412,1.66090047 Z M8.51929565,2.33878537 C8.47956413,2.34514717 8.43959751,2.36517505 8.40644873,2.39839777 L2.28473863,8.52410218 C2.2048054,8.590312 2.19163992,8.72343851 2.27133806,8.8030788 C2.34445346,8.87635728 2.48386642,8.86952424 2.55063418,8.78328654 L8.67210918,2.66417954 C8.77837336,2.55791396 8.68550975,2.33878537 8.53927896,2.33878537 C8.53269622,2.33878537 8.52587838,2.33878537 8.51929565,2.33878537 L8.51929565,2.33878537 Z M9.62942718,5.15564806 C9.58946057,5.16224548 9.54972905,5.18887078 9.51658027,5.21549608 L5.10309036,9.63364684 C5.02315713,9.69985666 5.01657439,9.83958059 5.08968979,9.91262346 C5.16280519,9.98590194 5.30221815,9.9790689 5.36898591,9.89942862 L9.78905855,5.48127786 C9.90190547,5.37477665 9.78882345,5.13562018 9.62942718,5.15564806 L9.62942718,5.15564806 Z M12.4475438,6.27179014 C12.4078123,6.27838756 12.3678457,6.29817982 12.3346969,6.33163816 L6.2129868,12.4505095 C6.1396363,12.516955 6.1396363,12.6498459 6.2129868,12.7162913 C6.27928436,12.7895698 6.41234968,12.7895698 6.47888235,12.7162913 L12.6003573,6.59741994 C12.7134394,6.48432131 12.6071752,6.25176226 12.4475438,6.27179014 L12.4475438,6.27179014 Z" id="Shape"></path>
            </g>
        </g>
    </g>
</svg>