<?xml version="1.0" encoding="UTF-8"?>
<svg width="725px" height="820px" viewBox="0 0 725 820" version="1.1" xmlns="http://www.w3.org/2000/svg" xmlns:xlink="http://www.w3.org/1999/xlink">
    <!-- Generator: Sketch 59.1 (86144) - https://sketch.com -->
    <title>Group 72</title>
    <desc>Created with Sketch.</desc>
    <defs>
        <polygon id="path-1" points="0.400672348 0.569109891 230.8 0.569109891 230.8 536.42105 0.400672348 536.42105"></polygon>
    </defs>
    <g id="Page-1" stroke="none" stroke-width="1" fill="none" fill-rule="evenodd">
        <g id="HOME-PISTE-1-Copy-5" transform="translate(-358.000000, -102.000000)">
            <g id="Group-72" transform="translate(358.000000, 102.000000)">
                <g id="Group-3" transform="translate(494.000000, 178.840000)">
                    <mask id="mask-2" fill="white">
                        <use xlink:href="#path-1"></use>
                    </mask>
                    <g id="Clip-2"></g>
                    <path d="M230.8002,213.7998 C230.1482,214.3658 230.3682,215.1378 230.3752,215.8248 C230.4312,221.0228 230.2882,226.2188 229.7682,231.3838 C229.1132,237.8818 228.4872,244.3818 227.5792,250.8588 C226.6942,257.1758 225.7052,263.4698 224.5272,269.7348 C222.4892,280.5588 219.8822,291.2478 216.8672,301.8408 C213.1252,314.9908 208.5312,327.8438 203.3322,340.4818 C201.6602,344.5438 199.9122,348.5778 198.0602,352.5608 C194.4862,360.2418 190.6952,367.8138 186.6052,375.2398 C180.9342,385.5388 174.8452,395.5748 168.2072,405.2778 C161.7082,414.7748 154.8282,423.9848 147.4282,432.8048 C142.2922,438.9268 136.9432,444.8518 131.5282,450.7308 C125.7202,457.0338 119.5382,462.9418 113.2422,468.7208 C100.8122,480.1288 87.6352,490.6228 73.7002,500.1548 C62.9412,507.5168 51.8422,514.3098 40.3642,520.4918 C29.8712,526.1448 19.1542,531.3158 8.1382,535.8688 C7.3082,536.2128 6.4852,536.4138 5.5882,536.42105 C2.9212,536.4408 1.2482,535.2628 0.5892,532.8548 C-0.0478,530.5318 0.9522,528.1678 3.2442,527.0548 C5.5412,525.9388 7.9282,525.0098 10.2692,523.9858 C31.1282,514.8538 50.8702,503.7208 69.5592,490.7298 C78.7442,484.3458 87.5972,477.5258 96.1332,470.2818 C105.4062,462.4148 114.3492,454.1958 122.7252,445.3878 C131.9762,435.6598 140.7602,425.5258 148.8642,414.8008 C156.6262,404.5278 163.9052,393.9408 170.5502,382.9118 C177.3642,371.6038 183.4882,359.9368 189.0062,347.9428 C195.0232,334.8628 200.1822,321.4558 204.5262,307.7318 C208.6472,294.7118 211.9462,281.4888 214.5502,268.0818 C216.0262,260.4888 217.2482,252.8558 218.1942,245.1908 C218.9052,239.4228 219.3802,233.6138 219.8772,227.8148 C221.0342,214.3248 220.9032,200.8218 220.6102,187.3248 C220.4822,181.4428 220.0632,175.5408 219.3982,169.6688 C219.0222,166.3448 218.8142,162.9998 218.3652,159.6798 C217.8202,155.6538 217.4202,151.6048 216.7882,147.5918 C215.4112,138.8528 213.7452,130.1688 211.7382,121.5448 C209.7112,112.8328 207.3442,104.2238 204.6852,95.6878 C199.9012,80.3328 193.9562,65.4418 187.1162,50.8898 C181.4302,38.7928 175.0142,27.1068 167.9492,15.7688 C166.3852,13.2598 164.7642,10.7858 163.2422,8.2518 C161.7822,5.8208 162.2112,3.4208 164.3132,1.6148 C165.9942,0.1708 169.0162,0.2328 170.6812,1.7358 C172.0722,2.9898 172.9412,4.6358 173.9212,6.1788 C181.9852,18.8748 189.3502,31.9638 195.8132,45.5498 C203.7172,62.1678 210.2682,79.3048 215.6262,96.9138 C219.6742,110.2138 222.7912,123.7258 225.3252,137.3748 C226.4162,143.2458 227.2062,149.1738 228.0012,155.0998 C228.9562,162.2148 229.5252,169.3618 230.1832,176.5018 C230.4912,179.8368 230.2982,183.2168 230.3722,186.5758 C230.3892,187.3398 230.0972,188.1938 230.8002,188.8398 L230.8002,213.7998 Z" id="Fill-1" fill="#FEFEFE" mask="url(#mask-2)"></path>
                </g>
                <path d="M353.2801,0.0002 C353.5481,0.3542 353.9341,0.4152 354.3411,0.4382 C357.6061,0.6232 360.8711,0.8122 364.1371,0.9972 C364.6161,1.0242 365.0971,1.0202 365.5731,1.0722 C366.8661,1.2142 367.6501,1.8002 368.0811,3.1662 C369.7821,8.5712 371.6111,13.9382 373.4131,19.3122 C377.2671,30.8102 381.1311,42.3042 385.0061,53.7952 C385.2041,54.3832 385.2961,55.0352 385.7691,55.5192 C386.5401,55.5462 386.6091,54.8632 386.8331,54.4142 C392.7941,42.4712 398.7481,30.5232 404.6801,18.5662 C406.7391,14.4152 408.7261,10.2292 410.7711,6.0702 C411.6861,4.2112 411.7231,4.1802 413.6941,4.5672 C414.6491,4.7552 415.6001,4.7322 416.5541,4.7912 C419.8121,4.9912 423.0701,5.1952 426.7441,5.4232 C412.1971,33.4802 397.7721,61.3032 383.3581,89.1052 C382.3711,88.8312 382.4461,88.0462 382.2561,87.5082 C378.3581,76.4392 374.5081,65.3542 370.6231,54.2812 C364.5981,37.1072 358.5521,19.9402 352.5301,2.7662 C352.2161,1.8722 351.7571,0.9992 351.8401,0.0002 L353.2801,0.0002 Z" id="Fill-4" fill="#FEFEFE"></path>
                <path d="M353.2801,819.84 C353.2711,808.727 353.2561,797.613 353.2591,786.501 C353.2601,784.479 353.2961,784.437 355.2221,784.429 C360.9791,784.407 366.7351,784.407 372.4911,784.429 C374.3631,784.437 374.4271,784.481 374.4141,786.294 C374.3761,791.304 375.0581,790.426 370.2801,790.497 C367.3221,790.541 364.3631,790.485 361.4051,790.514 C359.5131,790.532 359.4911,790.565 359.4511,792.359 C359.4181,793.877 359.4181,795.398 359.4511,796.916 C359.4901,798.696 359.5121,798.73 361.4151,798.745 C364.6921,798.772 367.9701,798.739 371.2481,798.758 C373.3361,798.77 373.3681,798.789 373.3851,800.888 C373.4201,805.151 373.7351,804.467 369.8841,804.512 C366.9261,804.546 363.9671,804.545 361.0091,804.509 C359.9041,804.496 359.4061,804.897 359.4341,806.044 C359.4821,808.042 359.4881,810.042 359.4321,812.04 C359.3961,813.287 359.9231,813.726 361.1351,813.712 C364.7331,813.672 368.3311,813.699 371.9291,813.701 C372.4881,813.701 373.0491,813.721 373.6081,813.707 C374.5351,813.685 374.8731,814.161 374.8631,815.043 C374.8451,816.642 374.8721,818.241 374.8801,819.84 L353.2801,819.84 Z" id="Fill-6" fill="#FEFEFE"></path>
                <path d="M0.8582,394.1516 C0.5722,394.1276 0.2862,394.1036 0.0002,394.0806 L0.0002,366.2406 C0.2872,366.2166 0.5752,366.1936 0.8632,366.1716 C1.0142,369.1046 1.2012,372.0686 0.7762,374.9616 C0.3222,378.0576 0.2692,381.1646 0.6082,384.1986 C0.9812,387.5346 0.8952,390.8326 0.8582,394.1516" id="Fill-8" fill="#FEFEFE"></path>
                <path d="M254.5623,274.1467 C254.4653,275.1517 255.0493,275.8547 255.4223,276.5917 C260.7133,287.0687 266.0363,297.5297 271.3263,308.0057 C275.1773,315.6337 278.9843,323.2847 282.8263,330.9167 C283.8033,332.8557 283.9813,332.9457 285.9673,332.4317 C292.6003,330.7157 299.2293,328.9817 305.8523,327.2257 C306.3383,327.0957 306.9973,327.0437 307.0913,326.3187 C304.6463,323.2077 256.1953,275.0347 254.5623,274.1467 L254.5623,274.1467 Z M355.7063,396.6717 C354.9183,397.6647 354.4343,398.4097 353.8193,399.0267 C346.4303,406.4437 339.0223,413.8417 331.6193,421.2457 C330.0373,422.8277 328.4803,424.4367 326.8633,425.9827 C326.1073,426.7047 325.7913,427.4887 325.8553,428.5337 C325.9693,430.3627 326.1213,432.1847 326.2883,434.0107 C326.9123,440.8327 327.3133,447.6757 327.8963,454.5027 C328.0723,456.5677 328.3483,458.6217 328.3663,460.6987 C328.3713,461.3347 328.4953,461.9577 329.0603,462.5497 C329.6883,462.1117 330.3743,461.7117 330.9683,461.2077 C338.8163,454.5447 346.6163,447.8267 354.5243,441.2377 C355.7883,440.1857 356.2153,439.1647 356.209362,437.6047 C356.1613,424.8967 356.1853,412.1897 356.1733,399.4817 C356.1723,398.7847 356.3323,398.0637 355.7063,396.6717 L355.7063,396.6717 Z M379.0003,387.6337 C379.2643,388.3847 379.8623,388.8027 380.3473,389.2887 C389.4473,398.3987 398.5533,407.5027 407.6593,416.6067 C407.9993,416.9467 408.3433,417.2797 408.6963,417.6047 C409.0043,417.8887 409.3973,418.0777 409.7933,417.9697 C411.8333,417.4167 413.9313,417.7007 415.9943,417.5017 C420.6733,417.0507 425.3523,416.5957 430.0353,416.1957 C434.6423,415.8017 439.2553,415.4747 443.8653,415.1137 C444.1333,415.0917 444.2533,414.8847 444.3513,414.5557 C444.2143,414.3477 444.0643,414.0687 443.8653,413.8307 C441.0013,410.3967 438.1463,406.9567 435.2593,403.5427 C431.1843,398.7277 427.0593,393.9537 423.0093,389.1167 C421.9473,387.8477 420.7623,387.3517 419.0873,387.36058 C406.4513,387.4237 393.8133,387.3917 381.1773,387.4037 C380.4943,387.4047 379.7753,387.2347 379.0003,387.6337 L379.0003,387.6337 Z M369.3223,397.3237 C369.0213,398.1237 369.1653,398.9157 369.1653,399.6847 C369.1543,412.0817 369.2073,424.4777 369.106996,436.8737 C369.0913,438.9227 369.7053,440.3107 371.2463,441.5987 C379.0253,448.1037 386.7333,454.6937 394.4993,461.2137 C395.1163,461.7317 395.6683,462.5127 396.7583,462.6127 C397.1433,458.4467 397.5523,454.4237 397.8773,450.3957 C398.2683,445.5477 398.4713,440.6817 398.9933,435.8487 C399.2173,433.7797 399.0783,431.6667 399.5223,429.6607 C399.8833,428.0297 399.5193,426.9947 398.3693,425.8537 C389.2253,416.7887 380.1403,407.6637 371.0243,398.5697 C370.5473,398.0927 370.1833,397.4097 369.3223,397.3237 L369.3223,397.3237 Z M280.5403,414.9497 C284.9943,415.3727 288.9293,415.7887 292.8713,416.1077 C297.7193,416.5007 302.5973,416.6337 307.4173,417.2357 C309.9533,417.5507 312.5353,417.2967 315.0293,417.9687 C316.0773,418.2507 316.8313,417.7377 317.5613,417.0037 C326.9353,407.5997 336.3303,398.2167 345.7133,388.8227 C346.0303,388.5047 346.4883,388.2147 346.1593,387.3947 L343.6893,387.3947 C331.4503,387.3947 319.2113,387.4707 306.9753,387.3277 C304.6063,387.2997 303.1143,388.1107 301.6973,389.8287 C297.5313,394.8787 293.2613,399.8437 289.0383,404.8477 C286.3143,408.0747 283.6013,411.3097 280.5403,414.9497 L280.5403,414.9497 Z M546.2033,374.3067 C546.2093,374.2167 546.2153,374.1267 546.2213,374.0387 C545.7853,373.8777 545.3583,373.6807 544.9113,373.5627 C533.1113,370.4667 521.3113,367.3757 509.5083,364.2917 C497.7053,361.2077 485.8963,358.1477 474.0963,355.0507 C454.8153,349.9907 435.5333,344.9357 416.2723,339.7977 C414.4233,339.3037 413.2343,339.5747 411.8653,340.9587 C401.4673,351.4767 390.9803,361.9077 380.5273,372.3727 C379.9883,372.9117 379.3333,373.3787 378.9373,374.3067 L546.2033,374.3067 Z M362.7563,172.1987 C362.1253,172.7127 362.0493,173.1807 361.9283,173.6407 C357.4773,190.5317 353.0043,207.4157 348.5683,224.3097 C344.1313,241.2027 339.7303,258.1047 335.3123,275.0017 C330.7143,292.5947 326.1473,310.1967 321.4643,327.7667 C321.0163,329.4497 321.4373,330.4037 322.5613,331.5217 C335.2553,344.1607 347.9093,356.8397 360.5873,369.4947 C361.1243,370.0307 361.5223,370.8077 362.4273,370.8777 C363.0403,368.7437 363.3383,187.9997 362.7563,172.1987 L362.7563,172.1987 Z M471.3623,271.6827 C470.4323,271.7037 469.7183,272.2747 468.9443,272.6657 C457.8853,278.2477 446.8393,283.8577 435.7803,289.4387 C428.0723,293.3287 420.3453,297.1797 412.6323,301.0587 C410.6973,302.0317 410.6873,302.0567 411.2373,304.1727 C413.0053,310.9637 414.7833,317.7537 416.5743,324.5397 C417.0153,326.2077 417.2743,326.2747 418.5173,325.1717 C418.6963,325.0127 418.8583,324.8347 419.0283,324.6657 C436.0483,307.6447 453.0703,290.6257 470.0823,273.5957 C470.6243,273.0527 471.4053,272.6277 471.3553,271.6747 C471.5533,271.5997 472.0363,271.8727 471.8343,271.3387 C471.7963,271.2377 471.4513,271.4517 471.3623,271.6827 L471.3623,271.6827 Z M369.3683,522.6117 C368.9793,523.2367 369.1703,523.8807 369.1693,524.4817 C369.1533,534.0007 369.1913,543.5217 369.1283,553.0417 C369.1173,554.7667 369.6663,556.0427 370.7833,557.3397 C375.6293,562.9667 380.3623,568.6907 385.1563,574.3637 C389.1253,579.0617 393.1273,583.7317 397.1043,588.4237 C400.8743,592.8717 404.6273,597.3337 408.3933,601.7857 C409.9913,603.6757 411.6053,605.5527 413.2033,607.4447 C415.0263,609.6017 415.8863,612.0047 414.7553,614.7567 C412.8713,619.3447 407.1583,620.2707 403.7103,616.5167 C401.6583,614.2837 399.7503,611.9177 397.7973,609.5937 C393.8913,604.9487 390.0083,600.2837 386.0993,595.6407 C380.9553,589.5317 375.7933,583.4377 370.6443,577.3337 C370.3363,576.9667 370.0763,576.5607 369.7063,576.0517 C368.8563,576.9767 369.1753,577.7967 369.1743,578.5077 C369.1513,591.2277 369.1653,603.9477 369.1473,616.6677 C369.1433,619.7887 367.4593,621.9907 364.6673,623.0497 C360.8513,624.4987 356.4463,621.3137 356.1943,617.3587 C356.1543,616.7207 356.1823,616.0797 356.1823,615.4387 C356.1823,603.1997 356.1863,590.9587 356.1733,578.7197 C356.1733,577.9547 356.3353,577.1597 356.0273,576.4507 C355.5533,576.3037 355.3633,576.6077 355.1723,576.8357 C347.9793,585.3957 340.7983,593.9647 333.6023,602.5217 C330.0033,606.7997 326.3743,611.0537 322.7643,615.3227 C321.1253,617.2597 319.3823,618.8987 316.5413,618.7817 C314.0793,618.6797 312.2453,617.6977 311.0293,615.5767 C309.7683,613.3757 309.7423,611.1547 311.1083,608.9967 C312.5243,606.7567 314.4333,604.9097 316.1163,602.8837 C320.8643,597.1727 325.6533,591.4967 330.4473,585.8237 C334.4163,581.1257 338.4223,576.4587 342.3993,571.7677 C346.7893,566.5897 351.1593,561.3947 355.5553,556.2207 C356.0623,555.6237 356.1873,554.9717 356.1873,554.2277 C356.1783,543.7497 356.1813,533.2707 356.1813,522.6297 C355.3063,522.8727 355.0753,523.5827 354.7363,524.1257 C348.6113,533.9587 342.5003,543.8007 336.3883,553.6417 C335.4603,555.1357 334.5683,556.6517 333.6143,558.1277 C331.8543,560.8487 328.3903,561.7717 325.3793,560.3567 C322.4703,558.9897 321.0163,555.5907 321.9953,552.5087 C322.2153,551.8147 322.5123,551.1727 322.8953,550.5577 C331.9773,535.9777 341.0583,521.3967 350.1313,506.8107 C351.9043,503.9617 353.6443,501.0917 355.4093,498.2387 C355.8803,497.4777 356.1943,496.7037 356.1923,495.7717 C356.1733,483.3727 356.1783,470.9717 356.1723,458.5727 C356.1723,458.2657 356.1993,457.9347 355.7473,457.5607 C354.2373,458.2707 353.0723,459.5907 351.7803,460.6777 C343.9563,467.2577 336.2043,473.9247 328.3913,480.5177 C326.3953,482.2027 324.2293,483.5087 321.3913,482.5577 C318.5753,481.6147 317.0513,479.7597 316.7623,476.8037 C316.1883,470.9317 315.7513,465.0487 315.2853,459.1667 C314.8263,453.3667 314.1683,447.5817 313.8803,441.7657 C313.8483,441.1207 313.7433,440.4997 313.2933,439.9647 C312.4193,440.1097 312.0133,440.8717 311.4683,441.4147 C303.3103,449.5467 295.1933,457.7217 286.9963,465.8157 C285.7343,467.0627 285.0383,468.4337 284.6513,470.1067 C281.7783,482.5387 278.8683,494.9617 275.9753,507.3887 C274.3473,514.3787 272.7383,521.3747 271.0993,528.3617 C270.4273,531.2237 269.1183,533.3827 265.9903,534.3927 C262.0973,535.6507 256.7733,531.6877 258.0233,526.5467 C259.6243,519.9597 261.1213,513.3467 262.6723,506.7477 C264.1863,500.3047 265.7133,493.8657 267.2233,487.4217 C267.3243,486.9887 267.5513,486.5157 267.1373,486.0777 C266.4223,486.1607 266.1013,486.7807 265.6673,487.2117 C258.8693,493.9897 252.0983,500.7947 245.2813,507.5537 C244.3153,508.5117 243.8703,509.4937 243.7633,510.8847 C243.2563,517.4787 242.5663,524.0587 242.0133,530.6507 C241.8273,532.8747 241.6953,535.1037 241.4983,537.3307 C240.8993,544.0817 240.5303,550.8547 239.9023,557.6027 C239.3843,563.1607 238.8383,568.7127 238.4913,574.2847 C238.4073,575.6327 238.1783,576.9757 238.0223,578.3217 C237.6723,581.3557 234.5133,583.7877 231.3273,583.6457 C228.1573,583.5047 225.1643,580.6347 225.1703,577.4267 C225.1753,574.4817 225.3193,571.5067 225.7553,568.5977 C226.1473,565.9847 226.1493,563.3547 226.4653,560.7397 C227.0283,556.0727 227.1703,551.3567 227.5743,546.6677 C228.1343,540.1577 228.7853,533.6547 229.3663,527.1447 C229.4563,526.1327 229.3783,525.1057 229.3783,523.8877 C228.3673,524.2437 227.8783,525.0027 227.2893,525.5907 C218.4533,534.4047 209.6283,543.2287 200.8093,552.0577 C198.9123,553.9577 196.7743,554.7717 194.0763,553.9697 C190.0903,552.7867 188.1493,548.0927 190.2623,544.4937 C190.9123,543.3847 191.8023,542.4607 192.7123,541.5527 C201.0923,533.1897 209.4643,524.8167 217.8273,516.4357 C218.4363,515.8257 219.1833,515.3207 219.5443,514.4877 C219.3493,513.9347 218.8803,514.0937 218.5393,514.1247 C214.0963,514.5397 209.6573,514.9937 205.2143,515.4047 C203.0703,515.6027 200.9193,515.6917 198.7723,515.8957 C191.9453,516.5427 185.0943,516.9247 178.2603,517.5017 C174.4473,517.8247 170.6403,518.1977 166.8233,518.4827 C163.1883,518.7527 159.9683,515.4957 159.9943,512.2027 C160.0233,508.5157 162.0873,505.9497 166.1653,505.5007 C170.6023,505.0137 175.0703,504.8237 179.5193,504.4367 C184.1233,504.0377 188.7183,503.5357 193.3213,503.1247 C195.9433,502.8897 198.5763,502.7807 201.1993,502.5537 C206.0423,502.1357 210.8803,501.6567 215.7233,501.2357 C218.3453,501.0077 220.9793,500.9027 223.5983,500.6407 C226.8493,500.3167 230.1233,500.2637 233.3623,499.7717 C234.1973,499.6447 234.8673,499.4217 235.4703,498.8177 C242.6973,491.5637 249.9403,484.3257 257.1723,477.0767 C257.3283,476.9197 257.4053,476.6857 257.5183,476.4907 C257.0563,475.9707 256.6263,476.3447 256.2043,476.4447 C243.2363,479.4797 230.2663,482.5067 217.3033,485.5597 C213.5633,486.4407 210.0973,484.4107 209.3693,480.8517 C208.5803,477.0017 209.8383,474.1177 214.3143,472.8737 C218.7683,471.6357 223.3013,470.6807 227.8043,469.6227 C234.7133,467.9987 241.6243,466.3837 248.5383,464.7787 C257.0043,462.8117 265.4713,460.8477 273.9453,458.9137 C275.0683,458.6577 276.0383,458.2557 276.8713,457.4197 C285.6243,448.6357 294.3963,439.8737 303.1603,431.1007 C303.3273,430.9337 303.4483,430.7227 303.7193,430.3617 C302.5853,429.8657 301.4183,429.7677 300.3073,429.6697 C298.3213,429.4967 296.3333,429.3767 294.3453,429.1967 C287.5163,428.5767 280.6553,428.2767 273.8393,427.5467 C271.3063,427.2767 268.7583,427.2427 266.2223,426.8497 C261.7723,426.1617 258.8793,420.4637 262.3293,416.2637 C265.0663,412.9307 267.8923,409.6707 270.6783,406.3777 C275.8853,400.2237 281.0913,394.0687 286.2413,387.9807 C285.9763,387.1337 285.4023,387.4097 284.9913,387.4097 C272.7513,387.3937 260.5113,387.4067 248.2713,387.3797 C247.1833,387.3777 246.2843,387.6667 245.3633,388.2397 C229.0203,398.4197 212.6593,408.5727 196.3023,418.7307 C195.0803,419.4897 193.8723,420.2727 192.6263,420.9907 C189.4153,422.8397 185.4513,421.9367 183.5773,418.8497 C181.7633,415.8607 182.4393,412.0347 185.6003,410.0227 C191.3963,406.3337 197.2533,402.7407 203.0883,399.1127 C208.5173,395.7367 213.9553,392.3767 219.3703,388.9817 C219.9313,388.6297 220.6253,388.3597 221.0063,387.6657 C220.3053,387.2107 219.6593,387.4087 219.0593,387.4077 C209.5393,387.3917 200.0193,387.4327 190.4993,387.3597 C188.9383,387.3477 187.7153,387.7967 186.5813,388.7617 C179.9483,394.4017 173.3233,400.0507 166.6713,405.6677 C158.9833,412.1607 151.2653,418.6167 143.5703,425.1007 C141.0053,427.2627 138.4543,429.4437 135.9263,431.6487 C133.8793,433.4337 131.5583,434.0047 129.0233,433.0767 C124.3293,431.3567 123.2533,425.2437 127.1093,421.9167 C132.4303,417.3277 137.8713,412.8757 143.2473,408.3507 C147.7693,404.5437 152.2703,400.7117 156.7863,396.8997 C159.5323,394.5817 162.2993,392.2887 165.0373,389.9597 C165.8163,389.2967 166.6793,388.6997 167.2793,387.6247 C166.5023,387.2077 165.7043,387.4067 164.9593,387.4067 C152.4003,387.3917 139.8403,387.3977 127.2803,387.3907 C126.3263,387.3907 125.3333,387.5407 124.4423,387.0927 C122.3543,386.0447 120.7253,384.6107 120.4453,382.0967 C120.1273,379.2507 120.8043,376.8507 123.4483,375.3307 C124.2833,374.8507 125.1883,374.5817 126.1283,374.3347 C145.2703,369.3297 164.4023,364.2827 183.5403,359.2557 C195.3473,356.1567 207.1593,353.0767 218.9683,349.9887 C235.1783,345.7497 251.3883,341.5157 267.5953,337.2667 C268.5923,337.0057 269.5613,336.6367 270.5023,336.3317 C270.7203,335.4327 270.1753,334.8717 269.8663,334.2547 C263.7093,321.9557 257.6423,309.6087 251.3423,297.3817 C244.8593,284.7997 238.6203,272.0967 232.2013,259.4837 C231.3133,257.7377 230.7083,256.0257 231.3233,253.9917 C232.4053,250.4117 236.0973,248.2847 239.5983,249.6137 C241.9783,250.5167 244.2253,251.7817 246.5063,252.9327 C248.7183,254.0487 250.8893,255.2457 253.0933,256.3757 C262.3443,261.1147 271.6043,265.8347 280.8543,270.5757 C292.5943,276.5907 304.3273,282.6207 316.0673,288.6357 C316.6213,288.9187 317.1323,289.3587 318.0263,289.2597 C318.4693,287.6517 318.9463,285.9897 319.3843,284.3177 C324.8013,263.6327 330.2093,242.9457 335.6273,222.2617 C339.9343,205.8227 344.2523,189.3867 348.5663,172.9497 C350.9773,163.7657 353.3863,154.5827 355.8023,145.3997 C355.9643,144.7827 356.2083,144.1857 356.3603,143.5657 C357.2313,140.0327 360.1713,138.0887 364.2913,138.7577 C366.4173,139.1037 367.8473,140.5307 368.6523,142.4837 C369.1053,143.5837 369.3633,144.7667 369.6663,145.9237 C375.2853,167.3797 380.8913,188.8407 386.5143,210.2957 C390.6413,226.0407 394.7923,241.7777 398.9273,257.5197 C401.5013,267.3207 404.0653,277.1237 406.6373,286.9237 C406.7383,287.3097 406.9043,287.6797 406.9943,288.0677 C407.1573,288.7717 407.5143,289.0177 408.1933,288.6617 C408.5473,288.4747 408.9103,288.3067 409.2673,288.1267 C421.2753,282.1017 433.3343,276.1767 445.2773,270.0247 C458.1443,263.3957 471.1333,257.0137 484.0293,250.4467 C485.8673,249.5107 487.6623,248.9517 489.7573,249.6007 C492.9513,250.5897 494.9953,254.1167 494.1273,257.3537 C493.8543,258.3687 493.3903,259.2927 492.9163,260.2177 C485.6623,274.3757 478.4153,288.5357 471.1513,302.6877 C465.8573,313.0007 460.5383,323.3007 455.2483,333.6157 C454.8553,334.3807 454.3043,335.0967 454.2163,336.2337 C457.3223,337.0787 460.4383,337.9557 463.5703,338.7737 C484.1033,344.1387 504.6423,349.4807 525.1733,354.8527 C540.9183,358.9717 556.6563,363.1247 572.3973,367.2607 C581.5023,369.6547 590.6113,372.0327 599.7123,374.4427 C602.3663,375.1457 604.2313,376.6937 604.9653,379.4737 C605.9283,383.1207 603.1243,387.1467 599.3723,387.3807 C598.6543,387.4257 597.9323,387.3957 597.2123,387.3957 C584.9723,387.3967 572.7323,387.3967 560.4923,387.3967 L557.8123,387.3967 C559.3343,389.3567 561.0753,390.4897 562.6023,391.8137 C567.2483,395.8407 572.0013,399.7447 576.7083,403.7017 C582.5163,408.5827 588.3223,413.4657 594.1213,418.3587 C595.6473,419.6467 597.2313,420.8827 598.6313,422.2987 C602.0673,425.7747 600.8253,431.4157 596.2813,433.0917 C593.6983,434.0447 591.4083,433.2707 589.3793,431.5827 C587.1073,429.6927 584.8763,427.7537 582.6163,425.8497 C576.7533,420.9087 570.8763,415.9857 565.0233,411.0347 C559.3523,406.2367 553.7053,401.4107 548.0433,396.5997 C544.8173,393.8597 541.5803,391.1317 538.3583,388.3857 C537.5963,387.7357 536.7703,387.3847 535.7443,387.3867 C525.4243,387.4087 515.1053,387.4067 504.7853,387.4207 C504.6663,387.4207 504.5483,387.5607 504.2763,387.7317 C506.1263,389.3107 508.2433,390.3917 510.2313,391.6327 C519.8573,397.6367 529.5363,403.5547 539.1663,409.5527 C543.5103,412.2587 544.0103,417.1797 540.3633,420.4287 C538.4973,422.0907 535.7523,422.5457 533.4433,421.2667 C530.4413,419.6027 527.5453,417.7457 524.6253,415.9367 C509.7503,406.7227 494.8813,397.4997 480.0163,388.2707 C479.1893,387.7567 478.3943,387.3737 477.3583,387.3757 C465.0383,387.4097 452.7183,387.3977 440.3983,387.4047 C440.0943,387.4047 439.7893,387.4837 439.5383,387.5177 C439.1493,388.1737 439.6243,388.4887 439.9103,388.8297 C443.3023,392.8637 446.7043,396.8907 450.1043,400.9177 C454.3793,405.9837 458.6573,411.0457 462.9323,416.1127 C466.5143,420.3577 463.8683,426.1087 459.1463,426.8677 C458.3573,426.9947 457.5783,427.1207 456.7793,427.1687 C451.2883,427.5037 445.8133,428.0447 440.3323,428.4997 C437.7123,428.7177 435.0853,428.9447 432.4613,429.1407 C428.8973,429.4067 425.3143,429.5307 421.7913,430.1487 C421.6713,430.9127 422.2583,431.1887 422.6263,431.5577 C431.1583,440.1097 439.7063,448.6447 448.2353,457.1997 C449.0493,458.0157 449.9293,458.5947 451.0753,458.8567 C457.9933,460.4407 464.9033,462.0577 471.8143,463.6737 C484.7823,466.7067 497.7443,469.7667 510.7203,472.7617 C512.8963,473.2637 514.5273,474.3627 515.5833,476.2937 C516.8653,478.6427 516.6383,480.9657 515.0593,483.0447 C513.3103,485.3477 510.9223,486.2347 508.0533,485.5577 C503.9383,484.5867 499.8333,483.5807 495.7173,482.6137 C486.7133,480.4997 477.7053,478.4007 468.6983,476.2937 C468.3943,476.2227 468.0943,476.1437 467.7933,476.4307 C468.0253,477.2337 468.7383,477.6697 469.2853,478.2187 C475.7233,484.6787 482.2433,491.0587 488.5783,497.6167 C490.2353,499.3317 492.0643,499.9597 494.2563,500.1237 C501.0953,500.6317 507.9413,501.0687 514.7713,501.6827 C520.4893,502.1967 526.2083,502.6757 531.9313,503.1197 C538.2873,503.6127 544.6213,504.3977 550.9793,504.8487 C553.6053,505.0357 556.2193,505.3717 558.8533,505.4617 C561.6853,505.5587 563.6533,507.0157 564.8553,509.5317 C565.9813,511.8897 565.4093,514.0537 563.9563,516.0527 C562.8573,517.5647 561.3223,518.3587 559.4553,518.4157 C558.2563,518.4517 557.0493,518.4577 555.8573,518.3527 C551.1733,517.9447 546.4943,517.4787 541.8123,517.0497 C539.6683,516.8537 537.5183,516.7737 535.3703,516.5647 C528.7043,515.9157 522.0143,515.5187 515.3373,514.9787 C512.1723,514.7217 509.0163,514.3617 505.6743,514.0307 C505.9323,515.1837 506.7263,515.6557 507.3123,516.2427 C515.9543,524.9107 524.6123,533.5607 533.2673,542.2157 C534.4033,543.3527 535.3803,544.5377 535.8003,546.1877 C536.5263,549.0397 535.5313,551.2177 533.4093,552.9717 C531.4063,554.6257 528.5283,554.7097 526.2183,553.3627 C525.3073,552.8317 524.5723,552.1047 523.8363,551.3687 C515.2973,542.8247 506.7503,534.2877 498.2213,525.7327 C497.6063,525.1167 497.1183,524.3747 496.7663,523.9357 C495.7983,524.0777 495.8533,524.4507 495.8783,524.7347 C496.2933,529.3367 496.7393,533.9367 497.1453,538.5407 C497.3763,541.1627 497.5433,543.7897 497.7483,546.4147 C498.1073,551.0257 498.4283,555.6407 498.8493,560.2477 C499.3643,565.8837 499.9993,571.5117 500.1863,577.1737 C500.2643,579.5267 499.2513,581.3057 497.2553,582.5807 C492.4653,585.6377 487.5593,581.6527 487.2343,577.6117 C486.8753,573.1607 486.5903,568.7027 486.2023,564.2537 C485.6403,557.8237 484.9813,551.4007 484.4343,544.9677 C484.2453,542.7437 484.1133,540.5147 483.9143,538.2897 C483.3093,531.5387 482.9933,524.7587 482.2833,518.0207 C482.0073,515.4087 482.1283,512.7577 481.5413,510.1657 C481.3573,509.3507 481.1513,508.6707 480.5523,508.0747 C473.2993,500.8457 466.0613,493.6027 458.8123,486.3697 C458.6563,486.2127 458.4213,486.1367 457.9123,485.8447 C458.3353,487.8497 458.6693,489.5957 459.0753,491.3257 C461.7873,502.8957 464.5153,514.4617 467.2363,526.0297 C468.0153,529.3367 466.7693,532.3637 464.0413,533.8067 C460.2653,535.8047 455.7523,533.7547 454.6463,529.4607 C453.7703,526.0627 453.0223,522.6327 452.2193,519.2157 C448.8983,505.0857 445.5733,490.9577 442.2623,476.8257 C441.6803,474.3417 441.1493,471.8457 440.6163,469.3517 C440.4103,468.3897 440.0353,467.5537 439.3213,466.8417 C430.4273,457.9747 421.5453,449.0937 412.6573,440.2207 C412.5493,440.1137 412.3903,440.0577 412.0413,439.8517 C411.8233,440.9547 411.5153,441.9817 411.4373,443.0257 C411.2833,445.0927 411.1483,447.1597 410.9583,449.2267 C410.3323,456.0557 410.0353,462.9167 409.3083,469.7337 C409.0373,472.2657 409.0553,474.8167 408.5953,477.3497 C407.6783,482.3947 401.8953,484.5867 397.8703,481.1767 C392.8743,476.9427 387.8593,472.7307 382.8553,468.5067 C378.7663,465.0547 374.6803,461.5997 370.5923,458.1467 C370.2933,457.8947 370.0223,457.5827 369.5453,457.6227 C368.9453,457.9847 369.1693,458.6047 369.1693,459.1217 C369.1553,471.2017 369.1643,483.2817 369.1463,495.3607 C369.1453,496.3537 369.3663,497.1927 369.9053,498.0557 C374.7293,505.7827 379.4923,513.5457 384.2953,521.2847 C390.2403,530.8597 396.2193,540.4147 402.1503,549.9977 C402.9853,551.3457 403.7683,552.7307 403.7173,554.4517 C403.6393,557.1247 402.1613,559.4437 399.7093,560.4727 C397.1853,561.5327 394.6703,561.0307 392.6733,559.0497 C391.0013,557.3927 390.0213,555.2567 388.7983,553.3007 C382.7433,543.6127 376.7623,533.8777 370.7223,524.1807 C370.3773,523.6267 370.1883,522.8477 369.3683,522.6117 L369.3683,522.6117 Z" id="Fill-10" fill="#FEFEFE"></path>
                <path d="M0.8582,394.1516 C0.8952,390.8326 0.9812,387.5346 0.6082,384.1986 C0.2692,381.1646 0.3222,378.0576 0.7762,374.9616 C1.2012,372.0686 1.0142,369.1046 0.8632,366.1716 C0.7892,361.4526 1.1082,356.7436 1.5232,352.0556 C2.0142,346.5046 2.5372,340.9536 3.2302,335.4146 C4.5752,324.6516 6.3942,313.9786 8.6382,303.3726 C10.3892,295.0966 12.5252,286.9206 14.8552,278.7906 C18.2452,266.9556 22.3522,255.3706 26.9692,243.9666 C29.0672,238.7866 31.2862,233.6496 33.6312,228.5766 C40.9162,212.8136 49.2942,197.6466 58.7542,183.0816 C59.1032,182.5456 59.4352,181.9966 59.8212,181.4886 C61.4792,179.3166 64.7352,178.7246 66.9082,180.1806 C69.0692,181.6316 69.7262,184.5336 68.2282,186.9786 C65.3062,191.7456 62.2562,196.4316 59.4052,201.2456 C53.2882,211.5686 47.7862,222.2066 42.7242,233.0846 C36.6492,246.1386 31.4772,259.5406 27.0852,273.2426 C22.8942,286.3196 19.5212,299.6196 16.9112,313.0976 C15.5792,319.9766 14.4602,326.9076 13.5542,333.8556 C12.8852,338.9866 12.3092,344.1376 11.9112,349.3086 C11.5012,354.6396 11.2472,359.9766 10.9032,365.3076 C10.3202,374.3406 10.4772,383.3706 10.6762,392.3926 C10.8322,399.4816 11.3802,406.5756 12.0752,413.6346 C13.0502,423.5426 14.4262,433.3996 16.1732,443.2146 C19.5952,462.4366 24.7052,481.1926 31.2542,499.5616 C35.0632,510.2486 39.4852,520.6886 44.3392,530.9526 C52.3512,547.8966 61.6892,564.0666 72.2882,579.5116 C78.4362,588.4696 85.0052,597.1116 91.9752,605.4536 C97.4072,611.9556 103.1292,618.1856 108.8992,624.3896 C113.9172,629.7876 119.2602,634.8346 124.6592,639.8096 C136.5332,650.7526 149.1552,660.7906 162.4452,669.9806 C174.6862,678.4436 187.3982,686.1066 200.6052,692.9696 C208.9062,697.2836 217.3592,701.2536 225.9742,704.8896 C226.5632,705.1376 227.1472,705.4026 227.7202,705.6856 C230.6072,707.1146 231.7142,709.7456 230.5612,712.4106 C229.4962,714.8726 226.7022,715.9956 223.8602,714.9646 C221.8352,714.2306 219.8672,713.3376 217.8932,712.4686 C202.5132,705.6976 187.6532,697.9396 173.3262,689.1476 C162.4192,682.4546 151.9082,675.1936 141.7642,667.4076 C135.6212,662.6916 129.6932,657.7056 123.8382,652.6286 C114.2182,644.2866 105.2582,635.2676 96.5332,626.0286 C89.6272,618.7156 83.2002,610.9666 77.0162,603.0176 C70.5352,594.6876 64.3992,586.1226 58.6522,577.2746 C53.2112,568.8956 48.1562,560.2906 43.3972,551.5016 C36.3092,538.4106 30.1312,524.9036 24.7472,511.0396 C18.7562,495.6186 13.9142,479.8296 10.0952,463.7266 C7.8142,454.1046 5.9612,444.3976 4.4612,434.6306 C3.5782,428.8856 2.8942,423.1066 2.3422,417.3116 C1.6082,409.6036 0.9372,401.8976 0.8582,394.1516" id="Fill-12" fill="#FEFEFE"></path>
                <path d="M87.3934,193.8684 C87.5334,195.0914 86.9294,196.1764 86.1934,197.2704 C78.3414,208.9634 71.3224,221.1454 65.0794,233.7644 C59.6914,244.6524 54.9134,255.8074 50.7764,267.2424 C46.6174,278.7404 43.0014,290.3954 40.1314,302.2794 C37.8294,311.8124 35.9484,321.4294 34.5014,331.1344 C33.4674,338.0724 32.6384,345.0274 32.0564,352.0214 C31.6054,357.4334 31.3964,362.8514 31.0514,368.2634 C30.6324,374.8204 30.6494,381.3704 30.7984,387.9144 C30.9664,395.2464 31.3534,402.5744 32.0364,409.8894 C32.5104,414.9714 33.0104,420.0494 33.6564,425.1054 C34.4434,431.2674 35.4914,437.3954 36.6474,443.5044 C38.7574,454.6434 41.4244,465.6474 44.7134,476.4894 C47.9594,487.1894 51.6724,497.7324 55.9834,508.0604 C59.5254,516.5484 63.3584,524.8954 67.5854,533.0604 C76.2714,549.8444 86.2844,565.7964 97.7064,580.8564 C103.8874,589.0064 110.4194,596.8584 117.3094,604.4274 C123.5074,611.2344 129.9774,617.7734 136.6944,624.0474 C151.2614,637.6524 166.9804,649.8164 183.7604,660.5844 C195.9504,668.4064 208.6214,675.3794 221.7224,681.5534 C226.1274,683.6294 230.6314,685.4984 235.1054,687.4264 C237.5574,688.4814 238.5904,689.8634 238.606542,692.3044 C238.6304,695.9724 235.6064,698.2934 232.1384,697.0714 C229.2814,696.0644 226.5014,694.8224 223.7354,693.5774 C204.0784,684.7354 185.3184,674.2934 167.6404,661.9444 C159.3214,656.1344 151.2914,649.9504 143.4714,643.4754 C132.8604,634.6904 122.9844,625.1394 113.4764,615.2024 C108.0654,609.5494 102.9854,603.5934 98.0024,597.5504 C89.5534,587.3044 81.8094,576.5564 74.6134,565.4064 C66.4544,552.7624 59.2324,539.5934 52.8284,525.9814 C46.1874,511.8694 40.5974,497.3404 35.9814,482.4414 C32.0114,469.6304 28.7794,456.6354 26.3804,443.4344 C24.9974,435.8284 23.8354,428.1934 22.9804,420.5074 C22.3714,415.0374 21.9164,409.5624 21.4984,404.0744 C20.6724,393.2224 20.4074,382.3614 20.7724,371.5044 C20.9974,364.8194 21.2994,358.1244 21.9554,351.4454 C22.4704,346.2104 22.9604,340.9704 23.6064,335.7524 C24.2414,330.6154 25.0904,325.4994 26.0044,320.4034 C27.4394,312.3984 29.1594,304.4524 31.1514,296.5644 C35.1674,280.6664 40.3654,265.1644 46.6144,250.0114 C50.5164,240.5474 54.8254,231.2684 59.6104,222.2224 C64.5424,212.8974 69.8294,203.7714 75.6184,194.9454 C76.5384,193.5434 77.3654,192.0684 78.3934,190.7514 C80.1764,188.4664 82.7894,188.0454 85.2174,189.5034 C86.7954,190.4504 87.3984,191.6204 87.3934,193.8684" id="Fill-14" fill="#FEFEFE"></path>
                <path d="M704.6005,381.0187 C704.6005,384.9387 704.7875,388.8687 704.5575,392.7747 C704.1855,399.0597 703.9355,405.3527 703.3395,411.6307 C702.8585,416.7097 702.2855,421.7787 701.6925,426.8417 C701.2015,431.0327 700.5145,435.2057 699.7735,439.3617 C698.0815,448.8597 696.1025,458.2957 693.6495,467.6327 C689.5445,483.2567 684.4115,498.5267 678.1205,513.4087 C674.8515,521.1397 671.4205,528.7967 667.5565,536.2457 C659.2295,552.2947 649.9135,567.7377 639.1765,582.3157 C633.2045,590.4237 626.9645,598.3007 620.3375,605.8827 C616.7065,610.0367 612.8865,614.0087 609.1615,618.0707 C604.5605,623.0867 599.5705,627.6947 594.6235,632.3377 C587.6375,638.8967 580.3035,645.0737 572.7235,650.9457 C564.7625,657.1127 556.5915,662.9857 548.1155,668.4227 C539.5035,673.9467 530.6655,679.0797 521.6245,683.8777 C512.9335,688.4927 504.0125,692.5947 494.9635,696.4357 C494.1565,696.7787 493.3375,697.1437 492.4875,697.3267 C490.2605,697.8047 487.8285,696.3187 486.9745,694.0487 C486.1925,691.9697 487.0365,689.2167 488.9725,688.1927 C490.9455,687.1487 493.0255,686.3017 495.0735,685.4057 C511.8705,678.0487 527.9755,669.4217 543.3655,659.4337 C554.5045,652.2037 565.1475,644.3157 575.3515,635.8387 C580.8795,631.2477 586.1575,626.3607 591.4405,621.4797 C597.0305,616.3157 602.2565,610.8137 607.3975,605.2367 C616.1155,595.7787 624.2235,585.8007 631.7725,575.3757 C638.3845,566.2437 644.5495,556.8147 650.1645,547.0447 C656.9385,535.2597 663.0315,523.1237 668.3385,510.5937 C672.5175,500.7287 676.2165,490.6947 679.4495,480.4877 C683.3305,468.2327 686.4305,455.7787 688.8295,443.1477 C690.3765,435.0037 691.6255,426.8117 692.5545,418.5807 C693.0375,414.3087 693.3475,410.0067 693.7135,405.7177 C694.7295,393.8317 694.7495,381.9307 694.4835,370.0307 C694.3415,363.6607 693.8655,357.2937 693.2735,350.9347 C692.8005,345.8537 692.2475,340.7827 691.6105,335.7247 C690.9635,330.5907 690.0555,325.4857 689.1335,320.3907 C687.1875,309.6327 684.6585,299.0067 681.6025,288.5117 C678.2305,276.9267 674.2725,265.5477 669.6575,254.3917 C665.8665,245.2267 661.6545,236.2627 657.0985,227.4597 C651.8045,217.2327 645.8875,207.3697 639.5695,197.7447 C639.1315,197.0787 638.6745,196.4107 638.3515,195.6867 C637.3105,193.3597 638.1145,190.8867 640.3285,189.4157 C642.2675,188.1247 644.6935,188.4117 646.4365,190.1907 C646.9335,190.6987 647.3405,191.3037 647.7415,191.8967 C654.9155,202.4997 661.2815,213.5747 667.1505,224.9497 C675.7045,241.5297 682.7895,258.7147 688.4885,276.4677 C692.5865,289.2367 695.9255,302.2067 698.4425,315.3877 C699.6385,321.6517 700.7555,327.9297 701.5945,334.2437 C702.2555,339.2137 702.8015,344.2087 703.2785,349.2097 C703.8395,355.0877 704.1165,360.9817 704.4955,366.8657 C704.7985,371.5657 704.5575,376.2997 704.5575,381.0187 L704.6005,381.0187 Z" id="Fill-16" fill="#FEFEFE"></path>
                <path d="M323.075025,149.551 C323.066,152.837 321.026,155.32 317.75,155.974 C306.618,158.198 295.702,161.204 285.029,165.069 C272.837,169.483 261.074,174.825 249.793,181.251 C241.03,186.243 232.611,191.742 224.574,197.818 C218.775,202.2 213.185,206.838 207.837,211.778 C204.487,214.872 201.188,218.012 198.02,221.284 C189.895,229.677 182.45,238.637 175.663,248.149 C168.498,258.189 162.184,268.741 156.772,279.814 C148.284,297.179 141.934,315.292 138.16,334.278 C138.051,334.824 137.87,335.358 137.763,335.904 C137.037,339.586 134.01,342.009 129.734,341.21 C126.295,340.568 124.192,337.064 124.915,333.269 C125.482,330.293 126.141,327.332 126.861,324.39 C130.665,308.836 135.865,293.776 142.583,279.225 C150.29,262.534 159.82,246.969 171.054,232.44 C176.04,225.99 181.434,219.894 186.984,213.914 C193.416,206.985 200.37,200.625 207.593,194.577 C218.637,185.33 230.478,177.197 243.01,170.057 C257.506,161.797 272.701,155.165 288.555,150.019 C297.213,147.207 306.031,144.986 314.946,143.165 C319.477,142.24 323.086,145.155 323.075025,149.551" id="Fill-18" fill="#FEFEFE"></path>
                <path d="M409.2328,143.027312 C411.6198,143.2946 414.4158,143.9676 417.2058,144.6196 C430.5248,147.7296 443.5388,151.8226 456.1488,157.1306 C467.1378,161.7556 477.7508,167.1326 487.9658,173.3036 C498.1078,179.4296 507.7398,186.2726 516.8828,193.7866 C524.7308,200.2346 532.1938,207.1276 539.1308,214.5536 C549.4038,225.5526 558.6758,237.3506 566.8148,250.0196 C574.1748,261.4756 580.4548,273.5036 585.8348,286.0116 C591.3398,298.8116 595.5568,312.0236 598.7968,325.5586 C599.2968,327.6516 599.6978,329.7676 600.1288,331.8776 C600.8758,335.5396 598.7508,338.9606 595.2578,339.7406 C591.6898,340.5376 588.3368,338.4616 587.4878,334.7616 C585.2388,324.9566 582.7688,315.2186 579.4388,305.7116 C575.1228,293.3906 569.8188,281.5216 563.5178,270.0856 C557.9528,259.9836 551.6118,250.3946 544.6308,241.2336 C540.9538,236.4076 536.9888,231.8086 532.9438,227.2756 C529.1048,222.9726 525.0558,218.8836 520.8998,214.9046 C509.5538,204.0416 497.1858,194.4876 483.8518,186.1696 C476.6528,181.6776 469.2478,177.5766 461.5968,173.9246 C449.3908,168.0976 436.7768,163.3536 423.7198,159.7846 C418.3308,158.3106 412.9068,157.0196 407.4258,155.9426 C403.8678,155.2426 401.8108,152.2106 402.2278,148.4716 C402.5798,145.3126 405.3528,142.9976 409.2328,143.027312" id="Fill-20" fill="#FEFEFE"></path>
                <path d="M149.3294,146.3401 C149.4534,142.8061 148.3104,138.7531 146.3914,134.9301 C143.4474,129.0641 139.0714,124.4671 133.3694,121.2391 C123.7484,115.7931 112.2754,116.2521 103.6254,123.5601 C100.1354,126.5081 97.1004,129.9091 93.8064,133.0521 C92.4284,134.3661 92.4554,134.4251 93.8644,135.8441 C98.2594,140.2671 102.6654,144.6781 107.0674,149.0931 C114.9694,157.0181 122.8694,164.9441 130.7754,172.8631 C132.3914,174.4821 132.4154,174.4861 133.9274,172.9871 C136.7664,170.1741 139.6854,167.4331 142.3944,164.4991 C146.8964,159.6241 149.3444,153.8611 149.3294,146.3401 M131.8514,194.2541 C131.1314,193.9911 130.7644,193.4411 130.3194,192.9941 C111.6754,174.3141 93.0314,155.6341 74.4054,136.9361 C72.0584,134.5791 72.0504,135.1731 74.4634,132.7871 C80.7724,126.5491 87.0454,120.2711 93.4754,114.1561 C99.8524,108.0921 107.4984,104.2751 116.2344,103.3311 C128.0024,102.0611 138.4544,105.5301 147.5504,113.1811 C152.7094,117.5211 156.9734,122.5711 159.7814,128.6631 C166.3934,143.0121 165.0604,156.7431 155.9464,169.6611 C154.1044,172.2711 151.9544,174.6441 149.6594,176.8821 C144.0514,182.3511 138.4764,187.8551 132.8844,193.3401 C132.5474,193.6711 132.1764,193.9681 131.8514,194.2541" id="Fill-22" fill="#FEFEFE"></path>
                <path d="M476.6253,59.0539 C480.3033,59.2159 483.3713,57.8799 485.8193,54.9809 C488.6073,51.6799 490.0783,44.8479 487.1203,40.6449 C485.1243,37.8089 482.3763,35.8989 479.1683,34.7259 C475.6493,33.4389 472.0423,32.3909 468.5103,31.1389 C467.2833,30.7029 466.8413,31.0329 466.4583,32.2109 C464.2413,39.0389 461.9373,45.8389 459.6913,52.6579 C459.1873,54.1909 459.2293,54.2449 460.9173,54.8209 C464.3153,55.9779 467.7163,57.1269 471.1403,58.2059 C472.8873,58.7569 474.6873,59.1339 476.6253,59.0539 M485.4893,110.7619 C482.1453,110.0749 479.0203,108.8589 475.8713,107.7599 C468.5213,105.1969 470.4133,107.2219 468.4983,99.7809 C466.0533,90.2849 463.7373,80.7559 461.4743,71.2159 C461.1473,69.8409 460.6083,69.0839 459.2623,68.8149 C457.8663,68.5359 456.4593,67.2729 455.1823,67.8319 C453.8713,68.4069 453.9443,70.2739 453.4963,71.5949 C450.8043,79.5329 448.1683,87.4909 445.5043,95.4389 C444.8323,97.4449 444.8103,97.4509 442.8753,96.8139 C439.5393,95.7159 436.2063,94.6099 432.8773,93.4889 C431.0663,92.8789 431.0543,92.8559 431.6723,90.9969 C435.1973,80.3929 438.7303,69.7919 442.2633,59.1909 C445.4923,49.4969 448.7313,39.8079 451.9503,30.1109 C453.6093,25.1109 455.2153,20.0929 456.8783,15.0939 C457.4993,13.2289 457.6693,13.1399 459.4253,13.6959 C468.3303,16.5119 477.2473,19.3059 485.9903,22.5929 C492.3883,24.9979 497.5083,29.0419 500.7503,35.2359 C504.0493,41.5339 504.3053,48.0619 502.2573,54.7419 C500.2463,61.2999 496.5933,66.6849 490.6413,70.3239 C487.4463,72.2769 483.9663,73.3179 480.2203,73.4499 C479.6613,73.4699 479.1003,73.4539 478.5413,73.4689 C476.5143,73.5209 476.4353,73.6009 476.9053,75.4999 C477.8453,79.2929 478.7953,83.0819 479.7673,86.8659 C481.6513,94.2029 483.5503,101.5349 485.4543,108.8669 C485.5943,109.4049 485.8513,109.9159 485.4893,110.7619" id="Fill-24" fill="#FEFEFE"></path>
                <path d="M586.0306,74.011 C585.8896,74.295 585.7416,74.664 585.5366,74.997 C583.6946,77.99 581.8706,80.994 579.9786,83.954 C579.1796,85.204 578.9156,85.214 577.4596,84.312 C571.5546,80.653 565.6616,76.973 559.7636,73.302 C556.3066,71.15 552.8376,69.017 549.3976,66.836 C548.4736,66.251 547.9526,66.279 547.3206,67.315 C544.3656,72.154 541.3076,76.928 538.3066,81.739 C537.3756,83.231 537.4166,83.259 539.0476,84.275 C547.0466,89.255 555.0416,94.241 563.0366,99.227 C563.4436,99.481 563.8546,99.729 564.2466,100.003 C565.6696,101.003 565.7716,101.278 564.8926,102.718 C563.1886,105.513 561.4476,108.286 559.6786,111.041 C558.6326,112.671 558.4976,112.686 556.8636,111.671 C552.9966,109.272 549.1396,106.854 545.2816,104.438 C540.8836,101.683 536.4956,98.909 532.0876,96.169 C530.3036,95.061 529.9546,95.128 528.8536,96.892 C525.5536,102.175 522.3196,107.498 518.9906,112.763 C518.3456,113.782 518.5416,114.227 519.4986,114.819 C528.7336,120.532 537.9616,126.26 547.1506,132.049 C549.9346,133.802 550.1326,133.205 548.1796,136.254 C546.6296,138.675 545.1446,141.138 543.5936,143.558 C542.4836,145.288 542.3226,145.32 540.6056,144.252 C533.5536,139.866 526.5116,135.464 519.4636,131.072 C513.4996,127.355 507.5316,123.645 501.5676,119.93 C500.9566,119.549 500.3646,119.14 499.7486,118.77 C498.7756,118.187 498.7766,117.594 499.3936,116.629 C502.6636,111.517 505.8526,106.353 509.0656,101.204 C518.4086,86.233 527.7506,71.26 537.0916,56.286 C538.7386,53.645 540.3666,50.99 542.0296,48.356 C543.0026,46.815 543.2446,46.757 544.8546,47.757 C553.2666,52.982 561.6686,58.221 570.0726,63.457 C574.8846,66.455 579.6966,69.454 584.5056,72.459 C585.0996,72.83 585.8056,73.102 586.0306,74.011" id="Fill-26" fill="#FEFEFE"></path>
                <path d="M180.6649,87.6906 C180.8879,87.5536 181.2199,87.3416 181.5589,87.1436 C189.6219,82.4136 197.6849,77.6836 205.7489,72.9566 C209.5479,70.7296 209.1219,70.8496 211.1219,74.2356 C212.4209,76.4366 213.6979,78.6526 215.0079,80.8476 C216.1789,82.8076 216.2189,82.8406 214.1539,84.0656 C209.1379,87.0416 204.0989,89.9796 199.0639,92.9236 C195.7539,94.8596 192.4189,96.7556 189.1239,98.7176 C187.3289,99.7886 187.2909,99.8706 188.3339,101.6876 C191.3979,107.0236 194.4999,112.3366 197.6249,117.6356 C198.5619,119.2256 198.6199,119.1926 200.1969,118.2646 C209.6979,112.6706 219.1979,107.0766 228.7019,101.4866 C230.4189,100.4756 230.7669,100.5396 231.7519,102.1846 C233.3929,104.9266 235.0139,107.6816 236.6029,110.4546 C237.5549,112.1126 237.4209,112.4536 235.7069,113.4596 C222.0629,121.4666 208.4209,129.4746 194.7789,137.4826 C193.1239,138.4536 193.0039,138.4416 192.0029,136.7366 C185.3339,125.3646 178.6859,113.9816 172.0129,102.6126 C166.5129,93.2416 160.9879,83.8856 155.4759,74.5216 C154.1389,72.2506 152.7869,69.9856 151.4849,67.6936 C150.5089,65.9746 150.5479,65.8166 152.1429,64.8766 C156.9609,62.0376 161.7979,59.2286 166.6229,56.4016 C173.5849,52.3216 180.5439,48.2356 187.5039,44.1536 C189.4349,43.0216 191.3829,41.9206 193.2899,40.7516 C194.0569,40.2806 194.5469,40.2816 195.0339,41.1236 C196.9149,44.3736 198.8149,47.6116 200.7579,50.8256 C201.4279,51.9336 200.8289,52.3776 199.9769,52.8736 C195.2099,55.6426 190.4569,58.4376 185.7009,61.2246 C181.0139,63.9716 176.3259,66.7166 171.6419,69.4696 C170.1109,70.3696 170.0189,70.5086 170.9299,72.0946 C173.2759,76.1836 175.6969,80.2286 178.0819,84.2946 C178.6069,85.1916 179.0919,86.1116 179.6179,87.0056 C179.8159,87.3416 180.0279,87.7066 180.6649,87.6906" id="Fill-28" fill="#FEFEFE"></path>
                <path d="M638.1932,144.4748 C636.3542,144.4748 634.5132,144.4398 632.6752,144.4868 C631.5262,144.5158 631.1212,144.0288 631.1712,142.9078 C631.2782,140.5118 631.2362,138.1208 630.7362,135.7558 C629.4322,129.5818 626.5722,124.5398 620.5362,121.8678 C617.5552,120.5468 614.5132,120.3588 611.5162,121.8678 C608.0372,123.6198 606.1932,127.4308 606.8662,131.2738 C607.5632,135.2488 609.2102,138.8928 610.7952,142.5508 C612.9852,147.6068 615.3332,152.6058 616.5562,158.0128 C617.8792,163.8608 617.9022,169.6488 614.7012,174.9568 C611.2932,180.6108 606.6662,184.8568 600.0242,186.4528 C594.7552,187.7178 589.6812,186.8798 584.8812,184.6408 C575.3452,180.1918 568.3822,173.1748 564.8102,163.1748 C562.9762,158.0408 562.0592,152.6958 562.9432,147.1828 C563.1432,145.9278 563.1162,144.6508 563.4212,143.3898 C563.6582,142.4118 564.0792,142.0248 565.0472,142.1198 C568.6962,142.4768 572.3512,142.7748 575.9922,143.1898 C577.6432,143.3768 577.7522,143.5728 577.4542,145.3158 C576.7472,149.4598 576.7932,153.5548 577.8562,157.6478 C579.5962,164.3418 583.9492,168.7938 590.0432,171.5708 C593.3562,173.0798 596.8212,172.9698 599.6932,170.3608 C602.4372,167.8678 603.4452,164.7478 602.5882,161.0278 C601.6832,157.0998 600.0422,153.4708 598.3692,149.8448 C596.0562,144.8318 593.9892,139.7358 593.0072,134.2668 C591.9012,128.1058 592.3182,122.1648 595.8662,116.7878 C599.1672,111.7868 603.6512,108.3048 609.6012,107.1018 C618.8182,105.2388 626.7772,107.9708 633.7232,114.0858 C640.1922,119.7798 643.7482,127.0428 644.9712,135.4588 C645.3362,137.9698 645.0952,140.5668 645.1532,143.1238 C645.1762,144.1388 644.7232,144.5628 643.7112,144.5438 C641.8722,144.5098 640.0322,144.5348 638.1932,144.5348 L638.1932,144.4748 Z" id="Fill-30" fill="#FEFEFE"></path>
                <path d="M300.8211,90.9787 C298.6431,91.7017 296.5391,92.4237 294.4201,93.0977 C281.3421,97.2557 268.2601,101.4057 255.1791,105.5547 C253.1361,106.2037 253.0991,106.2097 252.4071,104.0377 C248.5111,91.7957 244.6401,79.5477 240.7491,67.3057 C239.0081,61.8307 237.2341,56.3657 235.4871,50.8917 C233.1091,43.4427 230.7371,35.9917 228.3761,28.5367 C227.6131,26.1247 227.7561,25.9107 230.1681,25.1567 C233.3671,24.1587 236.5541,23.1237 239.7541,22.1267 C241.4311,21.6037 241.4301,21.6277 241.9301,23.1967 C246.0541,36.1197 250.1931,49.0377 254.3021,61.9637 C256.8401,69.9477 259.3351,77.9447 261.8491,85.9357 C261.9221,86.1647 261.9921,86.3927 262.0711,86.6197 C262.7391,88.5407 262.8141,88.5937 264.8221,87.9597 C274.3341,84.9577 283.8411,81.9457 293.3501,78.9367 C293.6541,78.8407 293.9611,78.7517 294.2661,78.6567 C296.8541,77.8497 296.8531,77.8777 297.6731,80.5847 C298.6201,83.7157 299.6341,86.8267 300.6121,89.9477 C300.7031,90.2377 300.7351,90.5447 300.8211,90.9787" id="Fill-32" fill="#FEFEFE"></path>
                <path d="M331.1986,86.0237 C331.2276,87.5947 331.1696,87.6147 329.5346,87.8227 C326.2196,88.2427 322.9106,88.7127 319.5986,89.1537 C319.1246,89.2167 318.6436,89.2207 318.1666,89.2627 C317.2586,89.3407 316.9176,88.9037 316.8126,88.0197 C316.1826,82.7247 315.5376,77.4307 314.8386,72.1447 C314.1296,66.7807 313.3176,61.4297 312.6166,56.0647 C311.8846,50.4607 311.2546,44.8437 310.5336,39.2387 C309.9856,34.9777 309.3416,30.7287 308.7836,26.4687 C308.2266,22.2077 307.7396,17.9357 307.1916,13.6717 C306.9486,11.7787 306.6306,9.8947 306.3526,8.0057 C306.0846,6.1897 306.2686,5.9937 308.0786,5.7597 C311.3146,5.3417 314.5436,4.8777 317.7756,4.4397 C318.1706,4.3857 318.5726,4.3817 318.9686,4.3337 C319.9896,4.2057 320.4926,4.4977 320.7606,5.6507 C321.1626,7.3757 321.2146,9.1297 321.4646,10.8577 C322.4316,17.5517 323.1556,24.2817 324.0296,30.9907 C324.8936,37.6187 325.8506,44.2347 326.7276,50.8607 C327.2926,55.1217 327.7696,59.3947 328.3206,63.6577 C328.8826,67.9977 329.5026,72.3297 330.0666,76.6697 C330.4666,79.7487 330.8146,82.8337 331.1986,86.0237" id="Fill-34" fill="#FEFEFE"></path>
                <path d="M356.6712,702.3117 C356.0892,703.4467 355.7572,703.9917 355.5192,704.5747 C353.1712,710.3347 350.8312,716.1007 348.5042,721.8717 C347.8102,723.5907 347.9002,723.7467 349.8052,723.7687 C354.2802,723.8227 358.7552,723.8307 363.2302,723.850742 C363.5402,723.8517 363.8652,723.8397 364.2542,723.2767 C361.8382,716.5967 359.3582,709.7407 356.6712,702.3117 L356.6712,702.3117 Z M356.6592,689.7947 C357.3792,689.7947 358.0982,689.7757 358.8172,689.7987 C362.1502,689.9077 361.4752,689.1937 362.6902,692.4807 C368.9662,709.4697 375.1382,726.4977 381.3462,743.5107 C381.4282,743.7367 381.5122,743.9607 381.5872,744.1887 C382.3102,746.3857 382.3092,746.3907 379.9032,746.3887 C378.0652,746.3877 376.2232,746.2947 374.3902,746.3857 C373.0292,746.4547 372.4082,745.8957 371.9812,744.6407 C370.8252,741.2427 369.4822,737.9087 368.3362,734.5067 C367.9302,733.3047 367.3022,732.9097 366.0842,732.8997 C359.4592,732.8407 352.8452,732.3487 346.2142,732.4287 C344.7582,732.4467 343.9302,732.7787 343.3852,734.2887 C342.1952,737.5867 340.7092,740.7787 339.4272,744.0467 C339.0582,744.9877 338.6192,745.5117 337.5462,745.4837 C335.2302,745.4217 332.9102,745.4707 330.5942,745.4057 C329.2562,745.3677 329.1242,745.1227 329.6752,743.7587 C331.7702,738.5817 333.8832,733.4117 336.0082,728.2467 C339.1952,720.4977 342.3942,712.7537 345.5932,705.0107 C347.4832,700.4387 349.4332,695.8907 351.2412,691.2867 C351.7092,690.0937 352.3382,689.6667 353.5432,689.7507 C354.5772,689.8237 355.6202,689.7657 356.6592,689.7657 L356.6592,689.7947 Z" id="Fill-36" fill="#FEFEFE"></path>
                <path d="M431.6214,720.5109 C431.7054,717.2859 430.8654,714.1799 430.3704,711.0349 C429.2164,703.7179 427.9454,696.4179 426.7194,689.1129 C426.4824,687.6979 426.2724,686.2779 425.9774,684.8749 C425.8154,684.1069 425.9194,683.6659 426.7894,683.5249 C429.3044,683.1139 431.8094,682.6409 434.3234,682.2239 C435.5084,682.0269 435.5874,683.0109 435.7284,683.7489 C436.1154,685.7829 436.4124,687.8339 436.7534,689.8779 C438.1574,698.2849 439.5764,706.6909 440.9644,715.1009 C441.5634,718.7299 441.9894,722.3539 441.1684,726.0339 C439.7534,732.3879 436.1954,737.0109 430.3044,739.7819 C424.1104,742.6939 417.6474,743.2869 411.2424,740.9079 C404.5324,738.4159 400.5284,733.2269 398.9524,726.3179 C397.9444,721.8959 397.3024,717.3879 396.5564,712.9079 C395.3374,705.5999 394.1684,698.2819 392.9774,690.9689 C392.7254,689.4229 392.8824,689.1379 394.3374,688.8799 C396.3764,688.5189 398.4194,688.1659 400.4714,687.8899 C401.9814,687.6859 402.3574,687.9489 402.6074,689.4279 C403.4704,694.5339 404.2414,699.6559 405.1254,704.7579 C406.2404,711.1949 406.9934,717.7009 408.5284,724.0539 C409.5444,728.2549 412.0074,731.4779 416.3904,732.6159 C422.3134,734.1559 429.5854,731.4599 431.3184,724.8009 C431.6884,723.3789 431.5484,721.9419 431.6214,720.5109" id="Fill-38" fill="#FEFEFE"></path>
                <path d="M315.4134,702.8889 C315.4334,699.7409 314.4344,697.5719 312.1544,696.1269 C311.0144,695.4069 309.8154,694.7599 308.4464,694.5119 C305.9434,694.0599 303.4514,693.5429 300.9464,693.1039 C299.1024,692.7809 298.9804,692.8609 298.6434,694.6829 C297.8204,699.1399 297.0284,703.6019 296.2444,708.0659 C295.9674,709.6419 296.2374,710.0459 297.8614,710.3409 C300.2084,710.7669 302.5944,711.0059 304.9184,711.5279 C309.9994,712.6669 315.7494,709.0459 315.4134,702.8889 M307.4744,720.9869 C303.5964,721.1509 299.9204,719.8679 296.1314,719.3969 C294.4294,719.1859 294.3574,719.0969 294.0224,720.8559 C293.0864,725.7839 292.3024,730.7409 291.3044,735.6549 C290.6624,738.8179 291.2874,739.1749 287.6374,738.2889 C286.0154,737.8969 284.3634,737.5819 282.7054,737.3969 C281.3504,737.2439 281.1784,736.5439 281.3944,735.4279 C281.9094,732.7699 282.4104,730.1099 282.8904,727.4459 C284.4574,718.7489 286.0014,710.0479 287.5774,701.3539 C288.6564,695.3999 289.8084,689.4579 290.8414,683.4959 C291.0384,682.3649 291.4594,681.9179 292.5484,682.1469 C299.0154,683.5069 305.6104,684.2109 312.0174,685.8559 C322.0864,688.4419 327.5504,698.1349 324.6434,708.1209 C322.6914,714.8299 318.3554,719.0529 311.5224,720.6979 C310.1724,721.0219 308.8234,720.9089 307.4744,720.9869" id="Fill-40" fill="#FEFEFE"></path>
                <path d="M129.6556,736.3283 C128.4216,736.4533 127.3866,735.9273 126.3576,735.2383 C118.9886,730.3073 111.7656,725.1723 104.7246,719.7863 C95.9076,713.0413 87.3456,705.9943 79.0556,698.6023 C73.0866,693.2793 67.3216,687.7583 61.6666,682.1113 C60.2436,680.6913 59.6726,679.1113 60.3036,677.1143 C60.9226,675.1573 62.2606,674.0573 64.1696,673.5873 C65.6666,673.2173 67.0286,673.5833 68.1786,674.6163 C69.4856,675.7893 70.8126,676.9443 72.0556,678.1823 C80.7256,686.8103 89.9086,694.8563 99.3436,702.6353 C109.8926,711.3293 120.9226,719.3613 132.2326,727.0163 C135.1486,728.9893 135.7966,732.8623 132.7946,735.2963 C131.8856,736.0333 130.8696,736.4153 129.6556,736.3283" id="Fill-42" fill="#FEFEFE"></path>
                <path d="M597.0663,735.8244 C594.3633,735.9094 592.8913,734.7624 591.9433,732.9554 C590.9503,731.0634 591.3333,728.9734 592.8473,727.4404 C593.4013,726.8804 594.0683,726.4184 594.7283,725.9744 C604.6683,719.2844 614.3123,712.1854 623.6353,704.6664 C629.9093,699.6054 636.0643,694.3954 641.9953,688.9244 C646.9853,684.3204 651.9623,679.7064 656.8123,674.9534 C658.5083,673.2914 660.6563,672.9924 662.5183,674.0084 C664.4733,675.0754 665.5333,677.0504 665.2523,679.1864 C665.0793,680.5004 664.4543,681.6164 663.5123,682.5234 C659.4853,686.4054 655.4933,690.3244 651.3853,694.1184 C648.0453,697.2044 644.5343,700.1044 641.1443,703.1364 C635.6673,708.0374 629.9203,712.6084 624.1363,717.1314 C616.3993,723.1804 608.4633,728.9624 600.2633,734.3724 C598.3903,735.6084 597.8663,735.8114 597.0663,735.8244" id="Fill-44" fill="#FEFEFE"></path>
                <path d="M487.6605,778.5764 C487.7105,780.1294 488.4375,781.4924 488.9155,782.9194 C490.5865,787.9134 492.3195,792.8874 493.9985,797.8784 C494.5775,799.5974 494.5355,799.6124 492.8185,800.2514 C488.8335,801.7344 488.8405,801.7324 487.5165,797.8434 C484.4565,788.8544 481.3895,779.8684 478.3255,770.8814 C478.1445,770.3524 477.9765,769.8194 477.7835,769.2954 C477.5375,768.6274 477.7785,768.2374 478.4325,768.0224 C479.6455,767.6234 480.8615,767.2294 482.0565,766.7814 C482.7875,766.5084 483.2535,766.8684 483.7735,767.2804 C488.3395,770.8924 492.9175,774.4904 497.4915,778.0944 C497.6175,778.1924 497.7255,778.3124 497.8535,778.4084 C498.9425,779.2244 499.3045,779.1374 499.6475,777.8254 C500.3345,775.2044 500.9555,772.5664 501.6145,769.9394 C502.3895,766.8474 503.2435,763.7734 503.9225,760.6614 C504.1635,759.5554 504.6775,759.0824 505.6965,758.7194 C509.6465,757.3114 509.6865,757.2544 511.0565,761.2444 C514.1915,770.3764 517.2765,779.5254 520.3655,788.6734 C521.0345,790.6534 521.0035,790.6694 519.0215,791.3654 C518.3435,791.6024 517.6565,791.8144 516.9705,792.0274 C515.2385,792.5644 515.2075,792.5724 514.6035,790.8234 C512.6525,785.1664 510.7275,779.5004 508.7865,773.8404 C508.5335,773.1014 508.2425,772.3764 507.7315,771.6264 C505.7675,777.4614 504.4975,783.4524 502.7375,789.4714 C500.6875,788.4904 499.2125,786.9024 497.5095,785.6524 C494.6815,783.5764 491.9365,781.3864 489.1615,779.2374 C488.7225,778.8964 488.3375,778.4634 487.7025,778.5334 C487.6285,778.4654 487.5545,778.3954 487.4795,778.3254 C487.5395,778.4094 487.6005,778.4924 487.6605,778.5764" id="Fill-46" fill="#FEFEFE"></path>
                <path d="M422.1317,810.3352 C424.1467,810.5022 426.3327,809.8442 428.4297,808.7532 C429.3107,808.2952 429.7767,807.7032 429.6387,806.6702 C429.4177,805.0132 429.2697,803.3452 429.0397,801.6892 C428.9087,800.7492 428.2037,800.5322 427.4297,800.7822 C425.8887,801.2802 424.2477,800.9582 422.7027,801.4742 C421.5687,801.8532 420.8717,801.3212 420.7547,800.1012 C420.7397,799.9442 420.6537,799.7972 420.6237,799.6412 C419.9997,796.4892 420.3467,795.9262 423.4977,795.4782 C426.4917,795.0512 429.4977,794.6772 432.5097,794.4072 C434.1607,794.2602 434.1677,794.3912 434.3807,796.0912 C434.8957,800.1992 435.3117,804.3252 436.0137,808.4002 C436.2487,809.7602 435.8647,810.5202 434.9677,811.2822 C432.1667,813.6652 428.9117,815.1402 425.3407,815.8652 C419.6467,817.0222 414.4037,815.9492 409.7867,812.3312 C406.3907,809.6702 404.2187,806.1872 403.4437,801.9482 C402.5417,797.0122 402.9807,792.2272 405.9537,787.9882 C409.5287,782.8912 414.4387,780.1792 420.7237,779.9862 C424.2377,779.8782 427.5647,780.4482 430.5897,782.3092 C432.4237,783.4352 432.4907,783.7782 431.0727,785.4022 C430.3417,786.2382 429.9767,787.5642 428.8927,787.8682 C427.8777,788.1522 427.1157,787.0122 426.1657,786.6362 C417.3497,783.1482 409.3457,789.6562 409.3377,797.5372 C409.3327,802.5512 411.3657,806.2952 415.5587,808.9252 C417.3747,810.0642 418.8097,810.3622 422.1317,810.3352" id="Fill-48" fill="#FEFEFE"></path>
                <path d="M180.1532,16.9651 C180.8532,16.8561 181.1002,17.2941 181.3402,17.7051 C183.1512,20.8081 184.9372,23.9241 186.7662,27.0151 C187.3712,28.0351 187.2882,28.7081 186.1782,29.3441 C182.8532,31.2461 179.5812,33.2381 176.2822,35.1861 C170.3022,38.7151 164.3152,42.2331 158.3362,45.7631 C156.1882,47.0311 155.9632,46.9791 154.6522,44.7791 C153.1412,42.2421 151.6182,39.7121 150.1142,37.1711 C148.9862,35.2641 149.0072,35.1551 150.8722,34.0561 C155.5492,31.3021 160.2362,28.5671 164.9162,25.8181 C169.3892,23.1911 173.8572,20.5541 178.3332,17.9311 C178.9512,17.5681 179.6012,17.2561 180.1532,16.9651" id="Fill-50" fill="#FEFEFE"></path>
                <path d="M600.5189,50.7776 C600.3629,51.1036 600.2229,51.4786 600.0169,51.8136 C598.1349,54.8746 596.2209,57.9146 594.3639,60.9886 C593.6239,62.2136 592.8429,61.7656 591.9739,61.2216 C588.6579,59.1486 585.3269,57.0966 582.0139,55.0176 C575.9949,51.2426 569.9829,47.4556 563.9709,43.6696 C562.5159,42.7536 562.5039,42.7346 563.3699,41.3336 C565.1719,38.4126 567.0549,35.5386 568.7869,32.5766 C569.7659,30.9016 569.9189,31.1616 571.3519,32.0326 C574.2159,33.7746 577.0489,35.5686 579.8929,37.3436 C586.1229,41.2336 592.3579,45.1146 598.5719,49.0296 C599.2829,49.4766 600.1909,49.7636 600.5189,50.7776" id="Fill-52" fill="#FEFEFE"></path>
                <path d="M538.5135,744.5686 C538.7405,744.7176 538.9645,744.8106 539.1095,744.9736 C539.2635,745.1466 539.3645,745.3766 539.4505,745.5966 C541.2465,750.1966 542.2635,749.1496 537.2815,751.5356 C534.6915,752.7756 532.0255,753.8556 529.4145,755.0536 C527.6735,755.8536 527.6225,755.9716 528.3265,757.7776 C528.8775,759.1876 529.5315,760.5596 530.1705,761.9346 C530.8755,763.4526 530.9855,763.5156 532.4855,762.8486 C535.1115,761.6816 537.7185,760.4726 540.3225,759.2556 C543.5895,757.7276 543.5835,757.7156 545.0835,760.9776 C546.0355,763.0486 546.0555,763.0916 544.0435,764.0276 C541.2215,765.3396 538.3625,766.5726 535.5255,767.8516 C533.3935,768.8116 533.3355,768.9726 534.2705,771.0516 C534.9905,772.6536 535.7595,774.2346 536.4265,775.8576 C536.9015,777.0126 537.4965,777.1936 538.6405,776.6486 C542.2425,774.9336 545.8985,773.3296 549.5325,771.6796 C551.2475,770.9016 551.2475,770.8986 551.9505,772.5266 C552.1075,772.8926 552.2495,773.2656 552.4125,773.6296 C553.6625,776.4046 553.6385,776.3466 550.9475,777.5336 C546.3475,779.5626 541.7945,781.6986 537.1985,783.7366 C533.2475,785.4876 533.8785,785.1506 532.4735,782.1056 C528.4635,773.4086 524.5585,764.6626 520.6155,755.9346 C520.4835,755.6446 520.3845,755.3396 520.2735,755.0406 C519.5345,753.0466 519.5535,753.0526 521.4595,752.2036 C526.7085,749.8656 531.9475,747.5056 537.1895,745.1546 C537.6225,744.9606 538.0575,744.7696 538.5135,744.5686" id="Fill-54" fill="#FEFEFE"></path>
                <path d="M296.4081,787.8342 C296.1901,787.7852 295.9721,787.7352 295.7541,787.6872 C293.7021,791.1612 291.6321,794.6242 289.6151,798.1192 C289.1771,798.8782 289.3891,799.4972 290.3921,799.6472 C292.9021,800.0262 295.4171,800.3812 297.9131,800.8352 C298.8581,801.0082 299.1251,800.6492 298.9611,799.8582 C298.1291,795.8472 297.2621,791.8422 296.4081,787.8342 M275.5071,810.8702 C276.8771,808.4752 278.1881,806.1192 279.5571,803.7982 C284.0971,796.0972 288.6891,788.4242 293.1861,780.6962 C294.0011,779.2952 294.7371,778.6762 296.5391,778.9972 C300.3991,779.6852 300.4871,779.5212 301.2811,783.2152 C303.5371,793.7292 305.7431,804.2542 307.9581,814.7762 C308.2811,816.3112 307.9581,816.6052 306.3481,816.3692 C302.3341,815.7782 302.3871,815.7652 301.3411,811.5992 C300.9571,810.0732 301.2411,808.1482 300.0351,807.1122 C298.9331,806.1652 297.1461,806.4152 295.6621,806.1482 C293.1551,805.6972 290.6291,805.3502 288.1161,804.9322 C286.5371,804.6692 285.3871,804.9802 284.6461,806.6342 C283.9321,808.2262 282.8821,809.6662 281.9881,811.1782 C281.6971,811.6712 281.3941,812.2432 280.7371,812.0982 C279.0571,811.7272 277.2371,811.9332 275.5071,810.8702" id="Fill-56" fill="#FEFEFE"></path>
                <path d="M195.8158,781.5149 C195.3368,782.8339 194.8388,784.3619 193.7588,785.5729 C193.4028,785.9719 192.8588,785.6739 192.4158,785.4839 C190.6548,784.7279 188.8838,783.9959 187.1338,783.2139 C183.4148,781.5509 179.6978,779.8819 175.9968,778.1789 C174.0288,777.2739 174.0488,777.2419 174.8748,775.3989 C179.0908,765.9959 183.3048,756.5919 187.5178,747.1879 C188.4088,745.2009 188.4038,745.2009 190.2678,746.0319 C195.6668,748.4369 201.0608,750.8549 206.4718,753.2309 C207.4328,753.6529 207.8278,754.0269 207.3288,755.1799 C205.0948,760.3409 205.8318,759.2259 201.4658,757.4909 C198.6488,756.3689 195.9318,754.9939 193.1768,753.7169 C192.1548,753.2439 191.4378,753.2939 190.9738,754.5229 C190.3808,756.0899 189.6718,757.6169 188.9308,759.1209 C188.3808,760.2399 188.6578,760.9039 189.7738,761.3849 C191.8278,762.2719 193.8558,763.2149 195.8968,764.1289 C196.5528,764.4229 197.2288,764.6739 197.8748,764.9879 C201.0788,766.5459 201.2968,765.9529 199.5468,769.6369 C198.5948,771.6429 198.5478,771.6869 196.4858,770.8049 C193.8418,769.6749 191.2428,768.4399 188.6198,767.2599 C187.9648,766.9659 187.2848,766.7289 186.6308,766.4329 C185.9498,766.1259 185.5908,766.4249 185.3318,767.0269 C184.4788,769.0069 183.6778,771.0139 182.7328,772.9499 C182.1578,774.1269 182.5248,774.6769 183.6108,775.1509 C186.9058,776.5879 190.1778,778.0779 193.4558,779.5559 C194.0378,779.8189 194.6038,780.1189 195.1768,780.4019 C195.5578,780.5899 195.8248,780.8589 195.8158,781.5149" id="Fill-58" fill="#FEFEFE"></path>
                <path d="M456.1781,781.7805 C455.4231,785.8765 454.8861,789.4705 454.5341,793.0935 C454.2511,796.0025 454.2791,796.0765 457.1711,795.2925 C459.4261,794.6795 461.8021,794.4795 464.1281,793.5015 C461.5111,789.6435 459.0141,785.9625 456.1781,781.7805 M456.3151,773.6265 C457.1481,773.5945 457.6941,773.9135 458.1431,774.5965 C458.9741,775.8635 459.8901,777.0725 460.7431,778.3255 C466.1341,786.2365 471.5171,794.1535 476.9031,802.0685 C477.1271,802.3985 477.3811,802.7115 477.5791,803.0555 C478.3541,804.4015 478.2831,804.5645 476.8081,804.9845 C472.6861,806.1565 472.7051,806.1435 470.3471,802.7125 C469.4491,801.4035 468.8931,799.6275 467.4421,798.9925 C465.9691,798.3465 464.3781,799.4335 462.8401,799.7385 C460.1861,800.2635 457.5721,800.9875 454.9271,801.5615 C453.7761,801.8115 453.1371,802.2595 453.0391,803.5845 C452.8991,805.4805 452.3891,807.3485 452.2171,809.2465 C452.1091,810.4425 451.5231,810.9245 450.4721,811.1415 C444.6291,812.3515 446.0581,813.0495 446.6591,807.5095 C447.2181,802.3725 448.0831,797.2685 448.8261,792.1525 C449.6041,786.7995 450.4071,781.4505 451.1741,776.0955 C451.2701,775.4265 451.3491,774.8525 452.1511,774.6685 C453.5451,774.3465 454.9281,773.9765 456.3151,773.6265" id="Fill-60" fill="#FEFEFE"></path>
                <path d="M220.8446,795.8752 C214.9326,796.0182 208.6616,792.4122 206.2976,785.4602 C205.8236,784.0642 205.8646,783.9502 207.2756,783.3412 C207.9356,783.0572 208.5956,782.7712 209.2686,782.5202 C211.3556,781.7422 211.3846,781.7392 212.1656,783.7762 C213.3626,786.9002 215.4796,788.9942 218.7686,789.8132 C219.2296,789.9292 219.7006,790.0242 220.1736,790.0662 C222.0006,790.2292 223.6196,789.6802 224.4036,787.9872 C225.1646,786.3432 224.7556,784.6872 223.4596,783.3532 C222.5706,782.4382 221.6056,781.6072 220.6336,780.7752 C218.1536,778.6522 215.6726,776.5402 214.1466,773.5042 C211.4776,768.1952 214.6816,762.6222 219.3746,760.7352 C224.9756,758.4842 231.3636,761.6282 234.0616,764.9712 C234.9076,766.0202 235.6216,767.1962 236.2546,768.3912 C236.9396,769.6832 236.8006,769.9702 235.5286,770.6422 C234.9666,770.9392 234.3616,771.1572 233.7726,771.4022 C231.5386,772.3322 231.4936,772.3542 230.4336,770.3002 C229.6716,768.8202 228.5266,767.7852 227.1686,766.8872 C225.6456,765.8782 223.9676,765.8212 222.3196,766.1502 C219.6196,766.6882 218.5176,769.7342 220.2256,771.9412 C221.4956,773.5822 223.0726,774.9502 224.7006,776.2532 C226.4486,777.6512 228.0496,779.1982 229.3436,781.0582 C231.6366,784.3542 231.6726,787.7332 229.8296,791.1912 C228.0746,794.4842 225.2286,795.9202 221.5636,795.8752 C221.3236,795.8722 221.0836,795.8752 220.8446,795.8752" id="Fill-62" fill="#FEFEFE"></path>
                <path d="M330.1873,789.0637 C329.5493,789.0637 328.9113,789.0847 328.2743,789.0577 C327.4283,789.0227 326.9313,789.2967 326.8633,790.2417 C326.6593,793.0947 326.4083,795.9447 326.1633,798.7947 C326.1243,799.2567 326.2543,799.5937 326.7363,799.6537 C328.9443,799.9247 331.1523,800.4207 333.3833,800.0747 C335.8543,799.6907 337.5613,797.7367 337.8593,795.1417 C338.1293,792.7937 336.7793,790.6807 334.4063,789.7527 C333.0503,789.2237 331.6383,789.0327 330.1873,789.0637 M331.3853,805.9337 C329.9253,805.8097 328.5753,805.9177 327.2243,805.6277 C325.9093,805.3447 325.4823,805.6867 325.5033,807.1437 C325.5483,810.1857 324.9633,813.1747 324.9073,816.2057 C324.8753,817.8857 324.7993,817.9447 323.0743,817.9037 C318.1493,817.7877 318.4933,818.2767 318.8593,813.2487 C319.2993,807.2177 319.8433,801.1937 320.2373,795.1587 C320.4803,791.4277 320.8623,787.7067 321.1473,783.9777 C321.2333,782.8507 321.7193,782.4977 322.8563,782.6067 C326.1823,782.9257 329.5143,783.1937 332.8493,783.3847 C339.4203,783.7627 344.1193,788.4427 344.104336,794.6737 C344.0893,801.0847 339.3473,805.8717 332.9493,805.9327 C332.3903,805.9377 331.8313,805.9337 331.3853,805.9337" id="Fill-64" fill="#FEFEFE"></path>
                <path d="M259.3783,807.3557 C250.1603,807.4547 242.2803,800.9777 241.3623,791.7347 C240.3643,781.6927 246.6393,771.8417 257.8463,771.0427 C264.3203,770.5807 269.8833,773.0807 273.8103,778.5227 C274.8953,780.0257 274.7783,780.3447 273.2223,781.3197 C270.3273,783.1327 270.2633,783.1927 267.9893,780.7087 C265.4353,777.9167 262.2243,776.6567 258.5873,776.8127 C255.2493,776.9567 252.5653,778.7007 250.4183,781.2697 C246.3903,786.0867 246.5053,794.4387 251.1053,798.5397 C254.9333,801.9527 259.3303,802.4497 264.0483,800.5997 C266.4223,799.6687 266.4113,799.6767 267.6593,801.7847 C269.0443,804.1237 270.0093,804.3297 266.1743,805.9887 C263.9613,806.9467 261.6403,807.5147 259.3783,807.3557" id="Fill-66" fill="#FEFEFE"></path>
                <path d="M471.3622,271.6828 C471.4512,271.4518 471.7972,271.2378 471.8352,271.3388 C472.0362,271.8718 471.5532,271.5998 471.3552,271.6748 L471.3622,271.6828 Z" id="Fill-68" fill="#FEFEFE"></path>
                <path d="M487.6605,778.5764 C487.6005,778.4924 487.5395,778.4094 487.4795,778.3254 C487.5545,778.3954 487.6285,778.4654 487.7025,778.5334 C487.7035,778.5334 487.6605,778.5764 487.6605,778.5764" id="Fill-70" fill="#FEFEFE"></path>
            </g>
        </g>
    </g>
</svg>