<?xml version="1.0" encoding="UTF-8"?>
<svg width="26px" height="15px" viewBox="0 0 26 15" version="1.1" xmlns="http://www.w3.org/2000/svg" xmlns:xlink="http://www.w3.org/1999/xlink">
    <!-- Generator: Sketch 57.1 (83088) - https://sketch.com -->
    <title>noun_User_2541667</title>
    <desc>Created with Sketch.</desc>
    <g id="Page-1" stroke="none" stroke-width="1" fill="none" fill-rule="evenodd">
        <g id="SINGLE-MISSION" transform="translate(-953.000000, -297.000000)" fill="#333333" fill-rule="nonzero">
            <g id="noun_User_2541667" transform="translate(953.000000, 297.000000)">
                <path d="M0.709481263,12.75 L5.46891807,12.75 C5.64628839,12.75 5.8236587,12.6025281 5.8236587,12.3960674 L5.8236587,11.9241573 C5.8236587,10.508427 6.47401653,9.24016854 7.5086767,8.44382022 C7.71560874,8.29634831 7.68604702,7.97191011 7.44955326,7.88342697 C6.94700404,7.64747191 6.38533137,7.5 5.79409698,7.5 L3.96127039,7.5 C1.77370316,7.5 0,9.26966292 0,11.4227528 L0,12.0421348 C0,12.4255618 0.325178912,12.75 0.709481263,12.75 Z" id="Path"></path>
                <ellipse id="Oval" cx="4.58823529" cy="4.5" rx="3.05882353" ry="3"></ellipse>
                <path d="M22.0841429,7.5 L20.2723285,7.5 C19.6586494,7.5 19.0741931,7.64747191 18.5481825,7.91292135 C18.3144,8.03089888 18.2851771,8.3258427 18.4897368,8.47331461 C19.4833125,9.2991573 20.1262144,10.5379213 20.1262144,11.9241573 L20.1262144,12.3960674 C20.1262144,12.5730337 20.2723285,12.75 20.4768882,12.75 L25.2986525,12.75 C25.678549,12.75 26,12.4255618 26,12.0421348 L26,11.4227528 C26,9.26966292 24.2466312,7.5 22.0841429,7.5 Z" id="Path"></path>
                <ellipse id="Oval" cx="21.4117647" cy="4.5" rx="3.05882353" ry="3"></ellipse>
                <ellipse id="Oval" cx="13" cy="3.75" rx="3.82352941" ry="3.75"></ellipse>
                <path d="M6.88235294,12.1730769 L6.88235294,14.3076923 C6.88235294,14.6826923 7.19389978,15 7.5620915,15 L18.4379085,15 C18.8061002,15 19.1176471,14.6826923 19.1176471,14.3076923 L19.1176471,12.1730769 C19.1176471,10.0096154 17.3899782,8.25 15.2657952,8.25 L10.7342048,8.25 C8.61002179,8.27884615 6.88235294,10.0096154 6.88235294,12.1730769 Z" id="Path"></path>
            </g>
        </g>
    </g>
</svg>