<svg width="22" height="22" viewBox="0 0 22 22" fill="none" xmlns="http://www.w3.org/2000/svg">
<mask id="mask0_133_21004" style="mask-type:alpha" maskUnits="userSpaceOnUse" x="0" y="0" width="22" height="22">
<rect x="0.561523" y="0.398682" width="20.7507" height="20.7507" fill="#D9D9D9"/>
</mask>
<g mask="url(#mask0_133_21004)">
<path d="M10.9367 17.691C12.0174 17.691 12.9361 17.3127 13.6926 16.5562C14.4492 15.7996 14.8274 14.881 14.8274 13.8002C14.8274 12.7194 14.4492 11.8008 13.6926 11.0443C12.9361 10.2877 12.0174 9.90945 10.9367 9.90945C9.8559 9.90945 8.93725 10.2877 8.18071 11.0443C7.42417 11.8008 7.0459 12.7194 7.0459 13.8002C7.0459 14.881 7.42417 15.7996 8.18071 16.5562C8.93725 17.3127 9.8559 17.691 10.9367 17.691ZM8.40767 8.78546C8.69588 8.62694 9.00209 8.50085 9.32632 8.40719C9.65055 8.31352 9.97839 8.25228 10.3098 8.22346L8.12667 3.85716H5.96514L8.40767 8.78546ZM13.4657 8.78546L15.9298 3.85716H13.7467L11.9094 7.53177L12.32 8.35315C12.5218 8.41079 12.7163 8.47203 12.9037 8.53688C13.091 8.60173 13.2783 8.68458 13.4657 8.78546ZM6.09483 16.6534C5.84985 16.2355 5.65892 15.7852 5.52202 15.3025C5.38512 14.8197 5.31668 14.319 5.31668 13.8002C5.31668 13.2814 5.38512 12.7807 5.52202 12.2979C5.65892 11.8152 5.84985 11.3649 6.09483 10.947C5.4896 11.1487 4.99245 11.5054 4.60337 12.017C4.21429 12.5285 4.01976 13.1229 4.01976 13.8002C4.01976 14.4775 4.21429 15.0719 4.60337 15.5835C4.99245 16.095 5.4896 16.4517 6.09483 16.6534ZM15.7785 16.6534C16.3837 16.4517 16.8809 16.095 17.27 15.5835C17.659 15.0719 17.8536 14.4775 17.8536 13.8002C17.8536 13.1229 17.659 12.5285 17.27 12.017C16.8809 11.5054 16.3837 11.1487 15.7785 10.947C16.0235 11.3649 16.2144 11.8152 16.3513 12.2979C16.4882 12.7807 16.5567 13.2814 16.5567 13.8002C16.5567 14.319 16.4882 14.8197 16.3513 15.3025C16.2144 15.7852 16.0235 16.2355 15.7785 16.6534ZM10.9367 19.4202C10.3603 19.4202 9.80907 19.3373 9.28309 19.1716C8.75712 19.0059 8.27077 18.779 7.82406 18.4907C7.69436 18.5196 7.56467 18.5376 7.43498 18.5448C7.30529 18.552 7.16839 18.5556 7.02429 18.5556C5.71296 18.5556 4.59616 18.0945 3.67391 17.1722C2.75165 16.25 2.29053 15.1332 2.29053 13.8218C2.29053 12.5681 2.70842 11.4946 3.54422 10.6011C4.38001 9.70771 5.41034 9.21056 6.63521 9.10969L3.15514 2.12793H9.20744L10.9367 5.58639L12.6659 2.12793H18.7182L15.2597 9.06646C16.4846 9.18174 17.5113 9.6861 18.3399 10.5795C19.1685 11.473 19.5828 12.5465 19.5828 13.8002C19.5828 15.126 19.1217 16.25 18.1994 17.1722C17.2772 18.0945 16.1532 18.5556 14.8274 18.5556C14.6977 18.5556 14.5644 18.552 14.4275 18.5448C14.2906 18.5376 14.1574 18.5196 14.0277 18.4907C13.5809 18.779 13.0982 19.0059 12.5794 19.1716C12.0607 19.3373 11.5131 19.4202 10.9367 19.4202ZM9.33713 16.1779L9.94236 14.2109L8.34282 13.0653H10.3098L10.9367 10.9902L11.5635 13.0653H13.5305L11.931 14.2109L12.5362 16.1779L10.9367 14.9674L9.33713 16.1779Z" fill="#1C1B1F"/>
</g>
</svg>
